<svg width="670" height="151" viewBox="0 0 670 151" fill="none" xmlns="http://www.w3.org/2000/svg">
<path d="M0.4 118.4V118.15H0.15V118.4H0.4ZM60 93L60.0801 92.7631L60.0773 92.7623L60 93ZM43.4 87.6L43.3191 87.8366L43.3227 87.8377L43.4 87.6ZM62.4 78.2L62.1501 78.2056L62.1555 78.45H62.4V78.2ZM85 78.2V78.45H85.25V78.2H85ZM31.6 103.8L31.6791 103.563L31.6759 103.562L31.6 103.8ZM48.4 109.4L48.3209 109.637L48.3209 109.637L48.4 109.4ZM23 118.4L23.2497 118.389L23.2389 118.15H23V118.4ZM0.15 118.4C0.15 128.073 4.03177 136.094 10.8159 141.693C17.5956 147.288 27.2562 150.45 38.8 150.45V149.95C27.3438 149.95 17.8044 146.812 11.1341 141.307C4.46823 135.806 0.65 127.927 0.65 118.4H0.15ZM38.8 150.45C51.8363 150.45 62.3963 147.342 69.7033 141.673C77.0175 135.998 81.05 127.773 81.05 117.6H80.55C80.55 127.627 76.5825 135.702 69.3968 141.277C62.2037 146.858 51.7637 149.95 38.8 149.95V150.45ZM81.05 117.6C81.05 111.55 79.3848 106.54 75.9159 102.439C72.4513 98.3418 67.2053 95.1717 60.0801 92.7632L59.9199 93.2368C66.9947 95.6283 72.1487 98.7582 75.5341 102.761C78.9152 106.76 80.55 111.65 80.55 117.6H81.05ZM60.0773 92.7623L43.4773 87.3623L43.3227 87.8377L59.9227 93.2377L60.0773 92.7623ZM43.4809 87.3635C39.7011 86.0704 36.9436 84.4876 35.1325 82.5541C33.328 80.6277 32.45 78.3397 32.45 75.6H31.95C31.95 78.4603 32.8721 80.8723 34.7675 82.8959C36.6564 84.9123 39.4989 86.5296 43.3191 87.8365L43.4809 87.3635ZM32.45 75.6C32.45 72.0726 33.8177 69.2992 36.35 67.4C38.8918 65.4936 42.6319 64.45 47.4 64.45V63.95C42.5681 63.95 38.7082 65.0064 36.05 67C33.3823 69.0008 31.95 71.9274 31.95 75.6H32.45ZM47.4 64.45C52.0573 64.45 55.689 65.6882 58.1796 68.0079C60.6684 70.326 62.0512 73.7549 62.1501 78.2056L62.6499 78.1944C62.5488 73.6451 61.1316 70.074 58.5204 67.6421C55.911 65.2117 52.1427 63.95 47.4 63.95V64.45ZM62.4 78.45H85V77.95H62.4V78.45ZM85.25 78.2C85.25 68.6338 81.6732 60.6637 75.3656 55.0877C69.0608 49.5143 60.0477 46.35 49.2 46.35V46.85C59.9523 46.85 68.8392 49.9857 75.0344 55.4623C81.2268 60.9363 84.75 68.7662 84.75 78.2H85.25ZM49.2 46.35C37.0608 46.35 27.1502 49.4097 20.269 54.9046C13.3818 60.4043 9.55 68.3277 9.55 78H10.05C10.05 68.4723 13.8182 60.6957 20.581 55.2954C27.3498 49.8903 37.1392 46.85 49.2 46.85V46.35ZM9.55 78C9.55 84.5556 11.5688 89.9653 15.3365 94.2892C19.1004 98.6089 24.5955 101.829 31.5241 104.038L31.6759 103.562C24.8045 101.371 19.3996 98.1911 15.7135 93.9608C12.0312 89.7347 10.05 84.4444 10.05 78H9.55ZM31.5209 104.037L48.3209 109.637L48.4791 109.163L31.6791 103.563L31.5209 104.037ZM48.3209 109.637C51.9088 110.833 54.3091 112.116 55.8153 113.768C57.3114 115.409 57.95 117.442 57.95 120.2H58.45C58.45 117.358 57.7886 115.191 56.1847 113.432C54.5909 111.684 52.0912 110.367 48.4791 109.163L48.3209 109.637ZM57.95 120.2C57.95 123.807 56.1995 126.784 53.1344 128.868C50.0624 130.957 45.666 132.15 40.4 132.15V132.65C45.7341 132.65 50.2376 131.443 53.4156 129.282C56.6005 127.116 58.45 123.993 58.45 120.2H57.95ZM40.4 132.15C35.2393 132.15 31.0499 130.86 28.1062 128.505C25.1676 126.154 23.4468 122.724 23.2497 118.389L22.7503 118.411C22.9532 122.876 24.7324 126.446 27.7938 128.895C30.8501 131.34 35.1607 132.65 40.4 132.65V132.15ZM23 118.15H0.4V118.65H23V118.15ZM86.425 148L86.1781 147.961L86.1324 148.25H86.425V148ZM109.825 148V148.25H110.039L110.072 148.039L109.825 148ZM125.425 49.2L125.672 49.239L125.718 48.95H125.425V49.2ZM102.025 49.2V48.95H101.811L101.778 49.161L102.025 49.2ZM116.825 29.45C121.303 29.45 125.564 27.3649 128.702 24.2011C131.841 21.0375 133.875 16.7767 133.875 12.4H133.375C133.375 16.6233 131.409 20.7625 128.348 23.8489C125.286 26.9351 121.147 28.95 116.825 28.95V29.45ZM133.875 12.4C133.875 5.26192 128.563 -0.0500045 121.425 -0.0500045V0.449996C128.287 0.449996 133.375 5.53806 133.375 12.4H133.875ZM121.425 -0.0500045C112.285 -0.0500045 104.375 8.06383 104.375 17H104.875C104.875 8.33615 112.565 0.449996 121.425 0.449996V-0.0500045ZM104.375 17C104.375 23.9326 109.482 29.45 116.825 29.45V28.95C109.768 28.95 104.875 23.6674 104.875 17H104.375ZM86.425 148.25H109.825V147.75H86.425V148.25ZM110.072 148.039L125.672 49.239L125.178 49.161L109.578 147.961L110.072 148.039ZM125.425 48.95H102.025V49.45H125.425V48.95ZM101.778 49.161L86.1781 147.961L86.6719 148.039L102.272 49.239L101.778 49.161ZM144.658 148V148.25H144.781L144.856 148.152L144.658 148ZM170.058 114.8L170.283 114.691L170.106 114.325L169.859 114.648L170.058 114.8ZM186.058 148L185.833 148.109L185.901 148.25H186.058V148ZM211.658 148V148.25H212.066L211.881 147.886L211.658 148ZM186.858 99.4L186.665 99.2414L186.561 99.3679L186.635 99.5136L186.858 99.4ZM228.058 49.2L228.251 49.3586L228.586 48.95H228.058V49.2ZM200.258 49.2V48.95H200.133L200.058 49.0494L200.258 49.2ZM174.458 83.4L174.233 83.5102L174.413 83.875L174.657 83.5506L174.458 83.4ZM157.658 49.2L157.882 49.0898L157.814 48.95H157.658V49.2ZM132.058 49.2V48.95H131.649L131.835 49.3139L132.058 49.2ZM157.858 99.6L158.048 99.7625L158.157 99.6352L158.08 99.4861L157.858 99.6ZM116.458 148L116.268 147.837L115.915 148.25H116.458V148ZM144.856 148.152L170.256 114.952L169.859 114.648L144.459 147.848L144.856 148.152ZM169.833 114.909L185.833 148.109L186.283 147.891L170.283 114.691L169.833 114.909ZM186.058 148.25H211.658V147.75H186.058V148.25ZM211.881 147.886L187.08 99.2864L186.635 99.5136L211.435 148.114L211.881 147.886ZM187.051 99.5586L228.251 49.3586L227.865 49.0414L186.665 99.2414L187.051 99.5586ZM228.058 48.95H200.258V49.45H228.058V48.95ZM200.058 49.0494L174.258 83.2494L174.657 83.5506L200.457 49.3506L200.058 49.0494ZM174.682 83.2898L157.882 49.0898L157.433 49.3102L174.233 83.5102L174.682 83.2898ZM157.658 48.95H132.058V49.45H157.658V48.95ZM131.835 49.3139L157.635 99.7139L158.08 99.4861L132.28 49.0861L131.835 49.3139ZM157.668 99.4375L116.268 147.837L116.648 148.163L158.048 99.7625L157.668 99.4375ZM116.458 148.25H144.658V147.75H116.458V148.25ZM255.169 148V148.25H255.383L255.416 148.039L255.169 148ZM267.569 68.8V68.55H267.355L267.322 68.7613L267.569 68.8ZM286.369 68.8V69.05H286.581L286.615 68.8403L286.369 68.8ZM289.569 49.2L289.815 49.2403L289.863 48.95H289.569V49.2ZM270.769 49.2L270.522 49.1613L270.476 49.45H270.769V49.2ZM275.569 18.6L275.816 18.6387L275.861 18.35H275.569V18.6ZM252.169 18.6V18.35H251.955L251.922 18.5613L252.169 18.6ZM247.369 49.2V49.45H247.583L247.616 49.2387L247.369 49.2ZM228.569 49.2V48.95H228.356L228.322 49.1597L228.569 49.2ZM225.369 68.8L225.122 68.7597L225.075 69.05H225.369V68.8ZM244.169 68.8L244.416 68.8387L244.461 68.55H244.169V68.8ZM231.769 148L231.522 147.961L231.477 148.25H231.769V148ZM255.416 148.039L267.816 68.8387L267.322 68.7613L254.922 147.961L255.416 148.039ZM267.569 69.05H286.369V68.55H267.569V69.05ZM286.615 68.8403L289.815 49.2403L289.322 49.1597L286.122 68.7597L286.615 68.8403ZM289.569 48.95H270.769V49.45H289.569V48.95ZM271.016 49.2387L275.816 18.6387L275.322 18.5613L270.522 49.1613L271.016 49.2387ZM275.569 18.35H252.169V18.85H275.569V18.35ZM251.922 18.5613L247.122 49.1613L247.616 49.2387L252.416 18.6387L251.922 18.5613ZM247.369 48.95H228.569V49.45H247.369V48.95ZM228.322 49.1597L225.122 68.7597L225.615 68.8403L228.815 49.2403L228.322 49.1597ZM225.369 69.05H244.169V68.55H225.369V69.05ZM243.922 68.7613L231.522 147.961L232.016 148.039L244.416 68.8387L243.922 68.7613ZM231.769 148.25H255.169V147.75H231.769V148.25ZM374.998 116.2L375.236 116.278L375.344 115.95H374.998V116.2ZM351.798 116.2V115.95H351.636L351.57 116.098L351.798 116.2ZM303.998 104.2L303.998 103.95L303.748 103.951V104.2H303.998ZM376.598 104L376.599 104.25L376.811 104.249L376.845 104.04L376.598 104ZM377.798 96.6L378.045 96.64L378.046 96.6381L377.798 96.6ZM355.598 89V89.25H355.812L355.845 89.0388L355.598 89ZM306.598 89L306.361 88.9209L306.252 89.25H306.598V89ZM326.198 150.65C348.7 150.65 368.4 136.987 375.236 116.278L374.761 116.122C367.997 136.613 348.497 150.15 326.198 150.15V150.65ZM374.998 115.95H351.798V116.45H374.998V115.95ZM351.57 116.098C347.415 125.397 338.513 130.75 327.398 130.75V131.25C338.684 131.25 347.782 125.803 352.027 116.302L351.57 116.098ZM327.398 130.75C319.852 130.75 314.077 128.418 310.185 124.034C306.29 119.645 304.248 113.163 304.248 104.8H303.748C303.748 113.237 305.807 119.855 309.811 124.366C313.82 128.882 319.745 131.25 327.398 131.25V130.75ZM304.248 104.8V104.2H303.748V104.8H304.248ZM303.999 104.45L376.599 104.25L376.598 103.75L303.998 103.95L303.999 104.45ZM376.845 104.04L378.045 96.64L377.552 96.56L376.352 103.96L376.845 104.04ZM378.046 96.6381C380.354 81.6856 377.347 69.1086 370.066 60.2661C362.785 51.4221 351.257 46.35 336.598 46.35V46.85C351.14 46.85 362.512 51.8779 369.68 60.5839C376.85 69.2914 379.843 81.7144 377.551 96.5619L378.046 96.6381ZM336.598 46.35C305.243 46.35 281.148 72.28 281.148 106.2H281.648C281.648 72.52 305.554 46.85 336.598 46.85V46.35ZM281.148 106.2C281.148 119.953 285.466 131.072 293.273 138.753C301.079 146.434 312.348 150.65 326.198 150.65V150.15C312.449 150.15 301.317 145.966 293.624 138.397C285.931 130.828 281.648 119.847 281.648 106.2H281.148ZM335.198 66.05C342.346 66.05 347.92 68.3322 351.436 72.3154C354.951 76.2974 356.443 82.017 355.351 88.9612L355.845 89.0388C356.954 81.983 355.446 76.1026 351.811 71.9846C348.177 67.8678 342.451 65.55 335.198 65.55V66.05ZM355.598 88.75H306.598V89.25H355.598V88.75ZM306.836 89.0791C311.41 75.355 322.331 66.05 335.198 66.05V65.55C322.066 65.55 310.987 75.045 306.361 88.9209L306.836 89.0791ZM475.788 116.2L476.025 116.278L476.133 115.95H475.788V116.2ZM452.588 116.2V115.95H452.425L452.359 116.098L452.588 116.2ZM404.788 104.2L404.787 103.95L404.538 103.951V104.2H404.788ZM477.388 104L477.388 104.25L477.6 104.249L477.634 104.04L477.388 104ZM478.588 96.6L478.834 96.64L478.835 96.6381L478.588 96.6ZM456.388 89V89.25H456.601L456.634 89.0388L456.388 89ZM407.388 89L407.15 88.9209L407.041 89.25H407.388V89ZM426.988 150.65C449.489 150.65 469.189 136.987 476.025 116.278L475.55 116.122C468.786 136.613 449.286 150.15 426.988 150.15V150.65ZM475.788 115.95H452.588V116.45H475.788V115.95ZM452.359 116.098C448.204 125.397 439.302 130.75 428.188 130.75V131.25C439.473 131.25 448.571 125.803 452.816 116.302L452.359 116.098ZM428.188 130.75C420.641 130.75 414.866 128.418 410.974 124.034C407.079 119.645 405.038 113.163 405.038 104.8H404.538C404.538 113.237 406.596 119.855 410.601 124.366C414.609 128.882 420.534 131.25 428.188 131.25V130.75ZM405.038 104.8V104.2H404.538V104.8H405.038ZM404.788 104.45L477.388 104.25L477.387 103.75L404.787 103.95L404.788 104.45ZM477.634 104.04L478.834 96.64L478.341 96.56L477.141 103.96L477.634 104.04ZM478.835 96.6381C481.143 81.6856 478.136 69.1086 470.856 60.2661C463.574 51.4221 452.046 46.35 437.388 46.35V46.85C451.929 46.85 463.301 51.8779 470.47 60.5839C477.639 69.2914 480.632 81.7144 478.34 96.5619L478.835 96.6381ZM437.388 46.35C406.032 46.35 381.938 72.28 381.938 106.2H382.438C382.438 72.52 406.343 46.85 437.388 46.85V46.35ZM381.938 106.2C381.938 119.953 386.255 131.072 394.062 138.753C401.868 146.434 413.137 150.65 426.988 150.65V150.15C413.238 150.15 402.107 145.966 394.413 138.397C386.72 130.828 382.438 119.847 382.438 106.2H381.938ZM435.988 66.05C443.135 66.05 448.709 68.3322 452.225 72.3154C455.74 76.2974 457.232 82.017 456.141 88.9612L456.634 89.0388C457.743 81.983 456.235 76.1026 452.6 71.9846C448.966 67.8678 443.24 65.55 435.988 65.55V66.05ZM456.388 88.75H407.388V89.25H456.388V88.75ZM407.625 89.0791C412.199 75.355 423.12 66.05 435.988 66.05V65.55C422.855 65.55 411.776 75.045 407.15 88.9209L407.625 89.0791ZM505.177 148V148.25H505.39L505.423 148.039L505.177 148ZM513.577 95L513.33 94.9603L513.33 94.9609L513.577 95ZM558.377 93L558.13 92.9574L558.13 92.9614L558.377 93ZM549.777 148L549.53 147.961L549.484 148.25H549.777V148ZM573.177 148V148.25H573.39L573.423 148.039L573.177 148ZM582.777 87.4L583.023 87.4391L583.024 87.4383L582.777 87.4ZM518.977 62.6H518.727V63.3465L519.176 62.7506L518.977 62.6ZM518.977 49.2H519.227V48.95H518.977V49.2ZM497.377 49.2V48.95H497.163L497.13 49.161L497.377 49.2ZM481.777 148L481.53 147.961L481.484 148.25H481.777V148ZM505.423 148.039L513.823 95.0391L513.33 94.9609L504.93 147.961L505.423 148.039ZM513.823 95.0397C515.217 86.3764 518.4 79.5288 522.98 74.8499C527.556 70.1747 533.541 67.65 540.577 67.65V67.15C533.412 67.15 527.297 69.7253 522.623 74.5001C517.953 79.2712 514.736 86.2235 513.33 94.9603L513.823 95.0397ZM540.577 67.65C547.418 67.65 552.481 69.9772 555.497 74.2688C558.52 78.5692 559.524 84.893 558.13 92.9574L558.623 93.0426C560.029 84.907 559.034 78.4308 555.906 73.9812C552.772 69.5228 547.535 67.15 540.577 67.15V67.65ZM558.13 92.9614L549.53 147.961L550.024 148.039L558.624 93.0386L558.13 92.9614ZM549.777 148.25H573.177V147.75H549.777V148.25ZM573.423 148.039L583.023 87.4391L582.53 87.3609L572.93 147.961L573.423 148.039ZM583.024 87.4383C584.833 75.7791 582.171 65.4064 576.247 57.9446C570.322 50.4809 561.148 45.95 549.977 45.95V46.45C561.005 46.45 570.031 50.9191 575.856 58.2554C581.682 65.5936 584.32 75.8209 582.53 87.3617L583.024 87.4383ZM549.977 45.95C543.343 45.95 537.702 47.2067 532.634 49.9043C527.568 52.6011 523.092 56.7295 518.777 62.4494L519.176 62.7506C523.461 57.0705 527.885 52.9989 532.869 50.3457C537.852 47.6933 543.41 46.45 549.977 46.45V45.95ZM519.227 62.6V49.2H518.727V62.6H519.227ZM518.977 48.95H497.377V49.45H518.977V48.95ZM497.13 49.161L481.53 147.961L482.024 148.039L497.624 49.239L497.13 49.161ZM481.777 148.25H505.177V147.75H481.777V148.25ZM584.83 118.4V118.15H584.58V118.4H584.83ZM644.43 93L644.51 92.7631L644.507 92.7623L644.43 93ZM627.83 87.6L627.749 87.8366L627.752 87.8377L627.83 87.6ZM646.83 78.2L646.58 78.2056L646.585 78.45H646.83V78.2ZM669.43 78.2V78.45H669.68V78.2H669.43ZM616.03 103.8L616.109 103.563L616.106 103.562L616.03 103.8ZM632.83 109.4L632.751 109.637L632.751 109.637L632.83 109.4ZM607.43 118.4L607.679 118.389L607.669 118.15H607.43V118.4ZM584.58 118.4C584.58 128.073 588.461 136.094 595.246 141.693C602.025 147.288 611.686 150.45 623.23 150.45V149.95C611.773 149.95 602.234 146.812 595.564 141.307C588.898 135.806 585.08 127.927 585.08 118.4H584.58ZM623.23 150.45C636.266 150.45 646.826 147.342 654.133 141.673C661.447 135.998 665.48 127.773 665.48 117.6H664.98C664.98 127.627 661.012 135.702 653.826 141.277C646.633 146.858 636.193 149.95 623.23 149.95V150.45ZM665.48 117.6C665.48 111.55 663.814 106.54 660.346 102.439C656.881 98.3418 651.635 95.1717 644.51 92.7632L644.35 93.2368C651.424 95.6283 656.578 98.7582 659.964 102.761C663.345 106.76 664.98 111.65 664.98 117.6H665.48ZM644.507 92.7623L627.907 87.3623L627.752 87.8377L644.352 93.2377L644.507 92.7623ZM627.911 87.3635C624.131 86.0704 621.373 84.4876 619.562 82.5541C617.758 80.6277 616.88 78.3397 616.88 75.6H616.38C616.38 78.4603 617.302 80.8723 619.197 82.8959C621.086 84.9123 623.929 86.5296 627.749 87.8365L627.911 87.3635ZM616.88 75.6C616.88 72.0726 618.247 69.2992 620.78 67.4C623.322 65.4936 627.062 64.45 631.83 64.45V63.95C626.998 63.95 623.138 65.0064 620.48 67C617.812 69.0008 616.38 71.9274 616.38 75.6H616.88ZM631.83 64.45C636.487 64.45 640.119 65.6882 642.609 68.0079C645.098 70.326 646.481 73.7549 646.58 78.2056L647.08 78.1944C646.979 73.6451 645.561 70.074 642.95 67.6421C640.341 65.2117 636.572 63.95 631.83 63.95V64.45ZM646.83 78.45H669.43V77.95H646.83V78.45ZM669.68 78.2C669.68 68.6338 666.103 60.6637 659.795 55.0877C653.49 49.5143 644.477 46.35 633.63 46.35V46.85C644.382 46.85 653.269 49.9857 659.464 55.4623C665.656 60.9363 669.18 68.7662 669.18 78.2H669.68ZM633.63 46.35C621.49 46.35 611.58 49.4097 604.699 54.9046C597.811 60.4043 593.98 68.3277 593.98 78H594.48C594.48 68.4723 598.248 60.6957 605.011 55.2954C611.779 49.8903 621.569 46.85 633.63 46.85V46.35ZM593.98 78C593.98 84.5556 595.999 89.9653 599.766 94.2892C603.53 98.6089 609.025 101.829 615.954 104.038L616.106 103.562C609.234 101.371 603.829 98.1911 600.143 93.9608C596.461 89.7347 594.48 84.4444 594.48 78H593.98ZM615.951 104.037L632.751 109.637L632.909 109.163L616.109 103.563L615.951 104.037ZM632.751 109.637C636.339 110.833 638.739 112.116 640.245 113.768C641.741 115.409 642.38 117.442 642.38 120.2H642.88C642.88 117.358 642.218 115.191 640.614 113.432C639.021 111.684 636.521 110.367 632.909 109.163L632.751 109.637ZM642.38 120.2C642.38 123.807 640.629 126.784 637.564 128.868C634.492 130.957 630.096 132.15 624.83 132.15V132.65C630.164 132.65 634.667 131.443 637.845 129.282C641.03 127.116 642.88 123.993 642.88 120.2H642.38ZM624.83 132.15C619.669 132.15 615.48 130.86 612.536 128.505C609.597 126.154 607.876 122.724 607.679 118.389L607.18 118.411C607.383 122.876 609.162 126.446 612.224 128.895C615.28 131.34 619.59 132.65 624.83 132.65V132.15ZM607.43 118.15H584.83V118.65H607.43V118.15Z" fill="#7A7A7A"/>
</svg>
