<svg width="494" height="151" viewBox="0 0 494 151" fill="none" xmlns="http://www.w3.org/2000/svg">
<path d="M24.2 148V148.25H24.4133L24.4469 148.039L24.2 148ZM33.2 91.6L33.4469 91.6394L33.4471 91.638L33.2 91.6ZM73 89.4L72.7535 89.3583L72.753 89.3612L73 89.4ZM63.8 148L63.553 147.961L63.5077 148.25H63.8V148ZM87.2 148V148.25H87.4132L87.4469 148.04L87.2 148ZM96.2 91.8L96.4469 91.8395L96.4472 91.8375L96.2 91.8ZM136 89.6L135.753 89.5601L135.753 89.5619L136 89.6ZM127 148L126.753 147.962L126.709 148.25H127V148ZM150.4 148V148.25H150.614L150.647 148.038L150.4 148ZM160.4 83.6L160.153 83.5608L160.153 83.5616L160.4 83.6ZM95 65L94.762 65.0766L94.9332 65.6082L95.2157 65.1264L95 65ZM37.8 61.2L37.55 61.1958L37.537 61.9764L38.001 61.3486L37.8 61.2ZM38 49.2L38.25 49.2042L38.2542 48.95H38V49.2ZM16.4 49.2V48.95H16.1864L16.1531 49.161L16.4 49.2ZM0.8 148L0.553059 147.961L0.507429 148.25H0.8V148ZM24.4469 148.039L33.4469 91.6394L32.9531 91.5606L23.9531 147.961L24.4469 148.039ZM33.4471 91.638C34.6416 83.8737 37.3749 77.9287 41.3768 73.9268C45.3747 69.9288 50.6586 67.85 57 67.85V67.35C50.5414 67.35 45.1253 69.4712 41.0232 73.5732C36.9251 77.6713 34.1584 83.7263 32.9529 91.562L33.4471 91.638ZM57 67.85C62.8345 67.85 67.3031 70.0226 70.0483 73.7727C72.7974 77.5282 73.8458 82.904 72.7535 89.3583L73.2465 89.4417C74.3542 82.896 73.3026 77.3718 70.4517 73.4773C67.5969 69.5774 62.9655 67.35 57 67.35V67.85ZM72.753 89.3612L63.553 147.961L64.047 148.039L73.247 89.4388L72.753 89.3612ZM63.8 148.25H87.2V147.75H63.8V148.25ZM87.4469 148.04L96.4469 91.8395L95.9532 91.7605L86.9532 147.96L87.4469 148.04ZM96.4472 91.8375C97.6419 83.9725 100.376 77.9266 104.354 73.8496C108.328 69.7769 113.561 67.65 119.8 67.65V67.15C113.439 67.15 108.072 69.3231 103.996 73.5004C99.9243 77.6733 97.1582 83.8275 95.9528 91.7625L96.4472 91.8375ZM119.8 67.65C125.839 67.65 130.355 69.7755 133.098 73.547C135.846 77.3255 136.847 82.8006 135.753 89.5601L136.247 89.6399C137.353 82.7994 136.354 77.1745 133.502 73.253C130.645 69.3245 125.961 67.15 119.8 67.15V67.65ZM135.753 89.5619L126.753 147.962L127.247 148.038L136.247 89.6381L135.753 89.5619ZM127 148.25H150.4V147.75H127V148.25ZM150.647 148.038L160.647 83.6384L160.153 83.5616L150.153 147.962L150.647 148.038ZM160.647 83.6392C162.357 72.8762 159.743 63.4994 153.964 56.8115C148.185 50.1241 139.262 46.15 128.4 46.15V46.65C139.138 46.65 147.915 50.5759 153.586 57.1385C159.257 63.7006 161.843 72.9238 160.153 83.5608L160.647 83.6392ZM128.4 46.15C114.115 46.15 101.631 53.1935 94.7843 64.8736L95.2157 65.1264C101.969 53.6064 114.285 46.65 128.4 46.65V46.15ZM95.238 64.9234C93.3233 58.9779 89.9932 54.28 85.3931 51.07C80.7938 47.8606 74.9414 46.15 68 46.15V46.65C74.8586 46.65 80.6062 48.3394 85.1069 51.48C89.6068 54.62 92.8767 59.2221 94.762 65.0766L95.238 64.9234ZM68 46.15C55.7242 46.15 44.4481 51.7849 37.599 61.0514L38.001 61.3486C44.7519 52.2151 55.8758 46.65 68 46.65V46.15ZM38.05 61.2042L38.25 49.2042L37.75 49.1958L37.55 61.1958L38.05 61.2042ZM38 48.95H16.4V49.45H38V48.95ZM16.1531 49.161L0.553059 147.961L1.04694 148.039L16.6469 49.239L16.1531 49.161ZM0.8 148.25H24.2V147.75H0.8V148.25ZM247.628 49.2V48.95H247.414L247.381 49.1618L247.628 49.2ZM239.428 102.2L239.675 102.24L239.675 102.238L239.428 102.2ZM195.828 103.8L196.075 103.84L196.075 103.84L195.828 103.8ZM204.628 49.2L204.875 49.2398L204.922 48.95H204.628V49.2ZM181.228 49.2V48.95H181.015L180.981 49.1606L181.228 49.2ZM171.628 109.4L171.875 109.44L171.875 109.439L171.628 109.4ZM234.028 134.6L234.278 134.604L234.289 133.86L233.831 134.446L234.028 134.6ZM233.828 148L233.578 147.996L233.574 148.25H233.828V148ZM255.628 148V148.25H255.842L255.875 148.039L255.628 148ZM271.228 49.2L271.475 49.239L271.521 48.95H271.228V49.2ZM247.381 49.1618L239.181 102.162L239.675 102.238L247.875 49.2382L247.381 49.1618ZM239.181 102.16C237.787 110.825 234.703 117.572 230.224 122.15C225.75 126.724 219.866 129.15 212.828 129.15V129.65C219.99 129.65 226.006 127.176 230.582 122.5C235.153 117.828 238.269 110.975 239.675 102.24L239.181 102.16ZM212.828 129.15C206.495 129.15 201.68 126.779 198.76 122.46C195.833 118.131 194.781 111.803 196.075 103.84L195.581 103.76C194.275 111.797 195.323 118.269 198.346 122.74C201.376 127.221 206.361 129.65 212.828 129.65V129.15ZM196.075 103.84L204.875 49.2398L204.381 49.1602L195.581 103.76L196.075 103.84ZM204.628 48.95H181.228V49.45H204.628V48.95ZM180.981 49.1606L171.381 109.361L171.875 109.439L181.475 49.2394L180.981 49.1606ZM171.381 109.36C169.472 121.017 171.982 131.39 177.73 138.853C183.48 146.318 192.455 150.85 203.428 150.85V150.35C192.601 150.35 183.776 145.882 178.126 138.547C172.474 131.21 169.984 120.983 171.875 109.44L171.381 109.36ZM203.428 150.85C210.062 150.85 215.603 149.593 220.571 146.946C225.536 144.299 229.911 140.272 234.225 134.754L233.831 134.446C229.545 139.928 225.22 143.901 220.336 146.504C215.453 149.107 209.995 150.35 203.428 150.35V150.85ZM233.778 134.596L233.578 147.996L234.078 148.004L234.278 134.604L233.778 134.596ZM233.828 148.25H255.628V147.75H233.828V148.25ZM255.875 148.039L271.475 49.239L270.981 49.161L255.381 147.961L255.875 148.039ZM271.228 48.95H247.628V49.45H271.228V48.95ZM267.533 118.4V118.15H267.283V118.4H267.533ZM327.133 93L327.213 92.7631L327.21 92.7623L327.133 93ZM310.533 87.6L310.452 87.8366L310.455 87.8377L310.533 87.6ZM329.533 78.2L329.283 78.2056L329.288 78.45H329.533V78.2ZM352.133 78.2V78.45H352.383V78.2H352.133ZM298.733 103.8L298.812 103.563L298.809 103.562L298.733 103.8ZM315.533 109.4L315.454 109.637L315.454 109.637L315.533 109.4ZM290.133 118.4L290.383 118.389L290.372 118.15H290.133V118.4ZM267.283 118.4C267.283 128.073 271.165 136.094 277.949 141.693C284.728 147.288 294.389 150.45 305.933 150.45V149.95C294.477 149.95 284.937 146.812 278.267 141.307C271.601 135.806 267.783 127.927 267.783 118.4H267.283ZM305.933 150.45C318.969 150.45 329.529 147.342 336.836 141.673C344.15 135.998 348.183 127.773 348.183 117.6H347.683C347.683 127.627 343.715 135.702 336.53 141.277C329.336 146.858 318.897 149.95 305.933 149.95V150.45ZM348.183 117.6C348.183 111.55 346.518 106.54 343.049 102.439C339.584 98.3418 334.338 95.1717 327.213 92.7632L327.053 93.2368C334.128 95.6283 339.282 98.7582 342.667 102.761C346.048 106.76 347.683 111.65 347.683 117.6H348.183ZM327.21 92.7623L310.61 87.3623L310.455 87.8377L327.055 93.2377L327.21 92.7623ZM310.614 87.3635C306.834 86.0704 304.076 84.4876 302.265 82.5541C300.461 80.6277 299.583 78.3397 299.583 75.6H299.083C299.083 78.4603 300.005 80.8723 301.9 82.8959C303.789 84.9123 306.632 86.5296 310.452 87.8365L310.614 87.3635ZM299.583 75.6C299.583 72.0726 300.95 69.2992 303.483 67.4C306.025 65.4936 309.765 64.45 314.533 64.45V63.95C309.701 63.95 305.841 65.0064 303.183 67C300.515 69.0008 299.083 71.9274 299.083 75.6H299.583ZM314.533 64.45C319.19 64.45 322.822 65.6882 325.312 68.0079C327.801 70.326 329.184 73.7549 329.283 78.2056L329.783 78.1944C329.682 73.6451 328.264 70.074 325.653 67.6421C323.044 65.2117 319.276 63.95 314.533 63.95V64.45ZM329.533 78.45H352.133V77.95H329.533V78.45ZM352.383 78.2C352.383 68.6338 348.806 60.6637 342.498 55.0877C336.194 49.5143 327.18 46.35 316.333 46.35V46.85C327.085 46.85 335.972 49.9857 342.167 55.4623C348.36 60.9363 351.883 68.7662 351.883 78.2H352.383ZM316.333 46.35C304.194 46.35 294.283 49.4097 287.402 54.9046C280.515 60.4043 276.683 68.3277 276.683 78H277.183C277.183 68.4723 280.951 60.6957 287.714 55.2954C294.483 49.8903 304.272 46.85 316.333 46.85V46.35ZM276.683 78C276.683 84.5556 278.702 89.9653 282.469 94.2892C286.233 98.6089 291.728 101.829 298.657 104.038L298.809 103.562C291.937 101.371 286.532 98.1911 282.846 93.9608C279.164 89.7347 277.183 84.4444 277.183 78H276.683ZM298.654 104.037L315.454 109.637L315.612 109.163L298.812 103.563L298.654 104.037ZM315.454 109.637C319.042 110.833 321.442 112.116 322.948 113.768C324.444 115.409 325.083 117.442 325.083 120.2H325.583C325.583 117.358 324.921 115.191 323.318 113.432C321.724 111.684 319.224 110.367 315.612 109.163L315.454 109.637ZM325.083 120.2C325.083 123.807 323.332 126.784 320.267 128.868C317.195 130.957 312.799 132.15 307.533 132.15V132.65C312.867 132.65 317.37 131.443 320.548 129.282C323.733 127.116 325.583 123.993 325.583 120.2H325.083ZM307.533 132.15C302.372 132.15 298.183 130.86 295.239 128.505C292.3 126.154 290.58 122.724 290.383 118.389L289.883 118.411C290.086 122.876 291.865 126.446 294.927 128.895C297.983 131.34 302.294 132.65 307.533 132.65V132.15ZM290.133 118.15H267.533V118.65H290.133V118.15ZM353.558 148L353.311 147.961L353.265 148.25H353.558V148ZM376.958 148V148.25H377.171L377.205 148.039L376.958 148ZM392.558 49.2L392.805 49.239L392.85 48.95H392.558V49.2ZM369.158 49.2V48.95H368.944L368.911 49.161L369.158 49.2ZM383.958 29.45C388.436 29.45 392.697 27.3649 395.835 24.2011C398.974 21.0375 401.008 16.7767 401.008 12.4H400.508C400.508 16.6233 398.542 20.7625 395.48 23.8489C392.419 26.9351 388.28 28.95 383.958 28.95V29.45ZM401.008 12.4C401.008 5.26192 395.696 -0.0500045 388.558 -0.0500045V0.449996C395.42 0.449996 400.508 5.53806 400.508 12.4H401.008ZM388.558 -0.0500045C379.418 -0.0500045 371.508 8.06383 371.508 17H372.008C372.008 8.33615 379.698 0.449996 388.558 0.449996V-0.0500045ZM371.508 17C371.508 23.9326 376.614 29.45 383.958 29.45V28.95C376.901 28.95 372.008 23.6674 372.008 17H371.508ZM353.558 148.25H376.958V147.75H353.558V148.25ZM377.205 148.039L392.805 49.239L392.311 49.161L376.711 147.961L377.205 148.039ZM392.558 48.95H369.158V49.45H392.558V48.95ZM368.911 49.161L353.311 147.961L353.805 148.039L369.405 49.239L368.911 49.161ZM489.591 111.8L489.832 111.864L489.916 111.55H489.591V111.8ZM465.591 111.8V111.55H465.416L465.356 111.715L465.591 111.8ZM469.391 85L469.141 85.0178L469.158 85.25H469.391V85ZM493.191 85V85.25H493.449L493.44 84.9917L493.191 85ZM395.141 106.2C395.141 119.953 399.458 131.072 407.265 138.753C415.072 146.434 426.34 150.65 440.191 150.65V150.15C426.442 150.15 415.31 145.966 407.616 138.397C399.923 130.828 395.641 119.847 395.641 106.2H395.141ZM440.191 150.65C464.107 150.65 483.604 135.37 489.832 111.864L489.349 111.736C483.177 135.03 463.874 150.15 440.191 150.15V150.65ZM489.591 111.55H465.591V112.05H489.591V111.55ZM465.356 111.715C461.388 122.625 452.276 129.35 441.391 129.35V129.85C452.505 129.85 461.793 122.975 465.826 111.885L465.356 111.715ZM441.391 129.35C434.551 129.35 429.123 127.023 425.403 122.81C421.679 118.592 419.641 112.458 419.641 104.8H419.141C419.141 112.542 421.202 118.808 425.028 123.14C428.858 127.477 434.431 129.85 441.391 129.85V129.35ZM419.641 104.8C419.641 83.6815 432.379 67.65 449.191 67.65V67.15C432.002 67.15 419.141 83.5185 419.141 104.8H419.641ZM449.191 67.65C455.147 67.65 459.933 69.238 463.327 72.1886C466.718 75.1374 468.745 79.4708 469.141 85.0178L469.64 84.9822C469.236 79.3292 467.164 74.8626 463.655 71.8113C460.148 68.762 455.234 67.15 449.191 67.15V67.65ZM469.391 85.25H493.191V84.75H469.391V85.25ZM493.44 84.9917C493.039 72.8372 488.868 63.168 481.508 56.5392C474.151 49.9125 463.635 46.35 450.591 46.35V46.85C463.546 46.85 473.931 50.3875 481.173 56.9108C488.414 63.432 492.543 72.9627 492.941 85.0083L493.44 84.9917ZM450.591 46.35C419.235 46.35 395.141 72.28 395.141 106.2H395.641C395.641 72.52 419.546 46.85 450.591 46.85V46.35Z" fill="#7A7A7A"/>
</svg>
