<svg width="611" height="152" viewBox="0 0 611 152" fill="none" xmlns="http://www.w3.org/2000/svg">
<path d="M-0.25 106.6C-0.25 120.061 4.52325 131.329 12.8529 139.231C21.1815 147.132 33.0465 151.65 47.2 151.65V151.15C33.1535 151.15 21.4185 146.668 13.1971 138.869C4.97675 131.071 0.25 119.939 0.25 106.6H-0.25ZM47.2 151.65C79.742 151.65 105.45 125.534 105.45 92.4H104.95C104.95 125.266 79.458 151.15 47.2 151.15V151.65ZM105.45 92.4C105.45 78.9385 100.677 67.6705 92.3471 59.7686C84.0185 51.8678 72.1535 47.35 58 47.35V47.85C72.0465 47.85 83.7815 52.3322 92.003 60.1314C100.223 67.9295 104.95 79.0615 104.95 92.4H105.45ZM58 47.35C25.6586 47.35 -0.25 73.4653 -0.25 106.6H0.25C0.25 73.7347 25.9414 47.85 58 47.85V47.35ZM24.25 104.8C24.25 84.5131 38.9618 68.45 56.8 68.45V67.95C38.6382 67.95 23.75 84.2869 23.75 104.8H24.25ZM56.8 68.45C64.241 68.45 70.2711 70.9783 74.4423 75.4456C78.6152 79.9149 80.95 86.3491 80.95 94.2H81.45C81.45 86.2509 79.0848 79.6851 74.8077 75.1044C70.5289 70.5217 64.359 67.95 56.8 67.95V68.45ZM80.95 94.2C80.95 114.288 66.4371 130.35 48.6 130.35V130.85C66.7629 130.85 81.45 114.512 81.45 94.2H80.95ZM48.6 130.35C41.0581 130.35 34.9776 127.821 30.7818 123.378C26.5843 118.934 24.25 112.55 24.25 104.8H23.75C23.75 112.65 26.1157 119.166 30.4182 123.722C34.7224 128.279 40.942 130.85 48.6 130.85V130.35ZM186.644 50.2V49.95H186.429L186.397 50.1618L186.644 50.2ZM178.444 103.2L178.691 103.24L178.691 103.238L178.444 103.2ZM134.844 104.8L135.091 104.84L135.091 104.84L134.844 104.8ZM143.644 50.2L143.891 50.2398L143.937 49.95H143.644V50.2ZM120.244 50.2V49.95H120.03L119.997 50.1606L120.244 50.2ZM110.644 110.4L110.89 110.44L110.891 110.439L110.644 110.4ZM173.044 135.6L173.294 135.604L173.305 134.86L172.847 135.446L173.044 135.6ZM172.844 149L172.594 148.996L172.59 149.25H172.844V149ZM194.644 149V149.25H194.857L194.891 149.039L194.644 149ZM210.244 50.2L210.491 50.239L210.536 49.95H210.244V50.2ZM186.397 50.1618L178.197 103.162L178.691 103.238L186.891 50.2382L186.397 50.1618ZM178.197 103.16C176.803 111.825 173.719 118.572 169.24 123.15C164.765 127.724 158.881 130.15 151.844 130.15V130.65C159.006 130.65 165.022 128.176 169.597 123.5C174.169 118.828 177.285 111.975 178.691 103.24L178.197 103.16ZM151.844 130.15C145.511 130.15 140.696 127.779 137.776 123.46C134.849 119.131 133.796 112.803 135.091 104.84L134.597 104.76C133.291 112.797 134.338 119.269 137.362 123.74C140.391 128.221 145.377 130.65 151.844 130.65V130.15ZM135.091 104.84L143.891 50.2398L143.397 50.1602L134.597 104.76L135.091 104.84ZM143.644 49.95H120.244V50.45H143.644V49.95ZM119.997 50.1606L110.397 110.361L110.891 110.439L120.491 50.2394L119.997 50.1606ZM110.397 110.36C108.488 122.017 110.997 132.39 116.746 139.853C122.496 147.318 131.471 151.85 142.444 151.85V151.35C131.617 151.35 122.792 146.882 117.142 139.547C111.49 132.21 109 121.983 110.89 110.44L110.397 110.36ZM142.444 151.85C149.077 151.85 154.619 150.593 159.586 147.946C164.552 145.299 168.927 141.272 173.241 135.754L172.847 135.446C168.561 140.928 164.236 144.901 159.351 147.504C154.468 150.107 149.01 151.35 142.444 151.35V151.85ZM172.794 135.596L172.594 148.996L173.094 149.004L173.294 135.604L172.794 135.596ZM172.844 149.25H194.644V148.75H172.844V149.25ZM194.891 149.039L210.491 50.239L209.997 50.161L194.397 148.961L194.891 149.039ZM210.244 49.95H186.644V50.45H210.244V49.95ZM244.302 149V149.25H244.515L244.549 149.039L244.302 149ZM256.702 69.8V69.55H256.488L256.455 69.7613L256.702 69.8ZM275.502 69.8V70.05H275.714L275.748 69.8403L275.502 69.8ZM278.702 50.2L278.948 50.2403L278.996 49.95H278.702V50.2ZM259.902 50.2L259.655 50.1613L259.609 50.45H259.902V50.2ZM264.702 19.6L264.949 19.6387L264.994 19.35H264.702V19.6ZM241.302 19.6V19.35H241.088L241.055 19.5613L241.302 19.6ZM236.502 50.2V50.45H236.715L236.749 50.2387L236.502 50.2ZM217.702 50.2V49.95H217.489L217.455 50.1597L217.702 50.2ZM214.502 69.8L214.255 69.7597L214.207 70.05H214.502V69.8ZM233.302 69.8L233.549 69.8387L233.594 69.55H233.302V69.8ZM220.902 149L220.655 148.961L220.609 149.25H220.902V149ZM244.549 149.039L256.949 69.8387L256.455 69.7613L244.055 148.961L244.549 149.039ZM256.702 70.05H275.502V69.55H256.702V70.05ZM275.748 69.8403L278.948 50.2403L278.455 50.1597L275.255 69.7597L275.748 69.8403ZM278.702 49.95H259.902V50.45H278.702V49.95ZM260.149 50.2387L264.949 19.6387L264.455 19.5613L259.655 50.1613L260.149 50.2387ZM264.702 19.35H241.302V19.85H264.702V19.35ZM241.055 19.5613L236.255 50.1613L236.749 50.2387L241.549 19.6387L241.055 19.5613ZM236.502 49.95H217.702V50.45H236.502V49.95ZM217.455 50.1597L214.255 69.7597L214.748 69.8403L217.948 50.2403L217.455 50.1597ZM214.502 70.05H233.302V69.55H214.502V70.05ZM233.055 69.7613L220.655 148.961L221.149 149.039L233.549 69.8387L233.055 69.7613ZM220.902 149.25H244.302V148.75H220.902V149.25ZM268.275 119.4V119.15H268.025V119.4H268.275ZM327.875 94L327.955 93.7631L327.952 93.7623L327.875 94ZM311.275 88.6L311.194 88.8366L311.198 88.8377L311.275 88.6ZM330.275 79.2L330.025 79.2056L330.03 79.45H330.275V79.2ZM352.875 79.2V79.45H353.125V79.2H352.875ZM299.475 104.8L299.554 104.563L299.551 104.562L299.475 104.8ZM316.275 110.4L316.196 110.637L316.196 110.637L316.275 110.4ZM290.875 119.4L291.125 119.389L291.114 119.15H290.875V119.4ZM268.025 119.4C268.025 129.073 271.907 137.094 278.691 142.693C285.471 148.288 295.131 151.45 306.675 151.45V150.95C295.219 150.95 285.679 147.812 279.009 142.307C272.343 136.806 268.525 128.927 268.525 119.4H268.025ZM306.675 151.45C319.711 151.45 330.271 148.342 337.578 142.673C344.892 136.998 348.925 128.773 348.925 118.6H348.425C348.425 128.627 344.458 136.702 337.272 142.277C330.079 147.858 319.639 150.95 306.675 150.95V151.45ZM348.925 118.6C348.925 112.55 347.26 107.54 343.791 103.439C340.326 99.3418 335.08 96.1717 327.955 93.7632L327.795 94.2368C334.87 96.6283 340.024 99.7582 343.409 103.761C346.79 107.76 348.425 112.65 348.425 118.6H348.925ZM327.952 93.7623L311.352 88.3623L311.198 88.8377L327.798 94.2377L327.952 93.7623ZM311.356 88.3635C307.576 87.0704 304.819 85.4876 303.007 83.5541C301.203 81.6277 300.325 79.3397 300.325 76.6H299.825C299.825 79.4603 300.747 81.8723 302.643 83.8959C304.531 85.9123 307.374 87.5296 311.194 88.8365L311.356 88.3635ZM300.325 76.6C300.325 73.0726 301.693 70.2992 304.225 68.4C306.767 66.4936 310.507 65.45 315.275 65.45V64.95C310.443 64.95 306.583 66.0064 303.925 68C301.257 70.0008 299.825 72.9274 299.825 76.6H300.325ZM315.275 65.45C319.932 65.45 323.564 66.6882 326.055 69.0079C328.543 71.326 329.926 74.7549 330.025 79.2056L330.525 79.1944C330.424 74.6451 329.007 71.074 326.395 68.6421C323.786 66.2117 320.018 64.95 315.275 64.95V65.45ZM330.275 79.45H352.875V78.95H330.275V79.45ZM353.125 79.2C353.125 69.6338 349.548 61.6637 343.241 56.0877C336.936 50.5143 327.923 47.35 317.075 47.35V47.85C327.827 47.85 336.714 50.9857 342.909 56.4623C349.102 61.9363 352.625 69.7662 352.625 79.2H353.125ZM317.075 47.35C304.936 47.35 295.025 50.4097 288.144 55.9046C281.257 61.4043 277.425 69.3277 277.425 79H277.925C277.925 69.4723 281.693 61.6957 288.456 56.2954C295.225 50.8903 305.014 47.85 317.075 47.85V47.35ZM277.425 79C277.425 85.5556 279.444 90.9653 283.212 95.2892C286.975 99.6089 292.47 102.829 299.399 105.038L299.551 104.562C292.68 102.371 287.275 99.1911 283.588 94.9608C279.906 90.7347 277.925 85.4444 277.925 79H277.425ZM299.396 105.037L316.196 110.637L316.354 110.163L299.554 104.563L299.396 105.037ZM316.196 110.637C319.784 111.833 322.184 113.116 323.69 114.768C325.186 116.409 325.825 118.442 325.825 121.2H326.325C326.325 118.358 325.664 116.191 324.06 114.432C322.466 112.684 319.966 111.367 316.354 110.163L316.196 110.637ZM325.825 121.2C325.825 124.807 324.075 127.784 321.009 129.868C317.937 131.957 313.541 133.15 308.275 133.15V133.65C313.609 133.65 318.113 132.443 321.291 130.282C324.476 128.116 326.325 124.993 326.325 121.2H325.825ZM308.275 133.15C303.114 133.15 298.925 131.86 295.981 129.505C293.043 127.154 291.322 123.724 291.125 119.389L290.625 119.411C290.828 123.876 292.607 127.446 295.669 129.895C298.725 132.34 303.036 133.65 308.275 133.65V133.15ZM290.875 119.15H268.275V119.65H290.875V119.15ZM354.3 149L354.053 148.961L354.007 149.25H354.3V149ZM377.7 149V149.25H377.914L377.947 149.039L377.7 149ZM393.3 50.2L393.547 50.239L393.593 49.95H393.3V50.2ZM369.9 50.2V49.95H369.686L369.653 50.161L369.9 50.2ZM384.7 30.45C389.178 30.45 393.439 28.3649 396.577 25.2011C399.716 22.0375 401.75 17.7767 401.75 13.4H401.25C401.25 17.6233 399.284 21.7625 396.223 24.8489C393.161 27.9351 389.022 29.95 384.7 29.95V30.45ZM401.75 13.4C401.75 6.26192 396.438 0.949996 389.3 0.949996V1.45C396.162 1.45 401.25 6.53806 401.25 13.4H401.75ZM389.3 0.949996C380.16 0.949996 372.25 9.06383 372.25 18H372.75C372.75 9.33615 380.44 1.45 389.3 1.45V0.949996ZM372.25 18C372.25 24.9326 377.357 30.45 384.7 30.45V29.95C377.643 29.95 372.75 24.6674 372.75 18H372.25ZM354.3 149.25H377.7V148.75H354.3V149.25ZM377.947 149.039L393.547 50.239L393.053 50.161L377.453 148.961L377.947 149.039ZM393.3 49.95H369.9V50.45H393.3V49.95ZM369.653 50.161L354.053 148.961L354.547 149.039L370.147 50.239L369.653 50.161ZM470.133 133.8L470.382 133.813L470.429 132.924L469.926 133.659L470.133 133.8ZM469.333 149L469.083 148.987L469.069 149.25H469.333V149ZM491.133 149V149.25H491.346L491.38 149.039L491.133 149ZM514.733 0.199996L514.98 0.239158L515.026 -0.0500035H514.733V0.199996ZM491.333 0.199996V-0.0500035H491.119L491.086 0.161471L491.333 0.199996ZM481.133 65.6L480.904 65.7015L481.249 66.4771L481.38 65.6385L481.133 65.6ZM436.533 151.65C451.216 151.65 462.493 145.408 470.339 133.941L469.926 133.659C462.172 144.992 451.049 151.15 436.533 151.15V151.65ZM469.883 133.787L469.083 148.987L469.582 149.013L470.382 133.813L469.883 133.787ZM469.333 149.25H491.133V148.75H469.333V149.25ZM491.38 149.039L514.98 0.239158L514.486 0.160835L490.886 148.961L491.38 149.039ZM514.733 -0.0500035H491.333V0.449996H514.733V-0.0500035ZM491.086 0.161471L480.886 65.5615L481.38 65.6385L491.58 0.238522L491.086 0.161471ZM481.361 65.4985C476.51 54.5831 463.401 47.35 448.333 47.35V47.85C463.265 47.85 476.156 55.0169 480.904 65.7015L481.361 65.4985ZM448.333 47.35C418.567 47.35 396.283 71.8915 396.283 106.8H396.783C396.783 72.1085 418.899 47.85 448.333 47.85V47.35ZM396.283 106.8C396.283 120.053 400.5 131.266 407.647 139.168C414.796 147.071 424.864 151.65 436.533 151.65V151.15C425.002 151.15 415.07 146.629 408.018 138.832C400.965 131.034 396.783 119.947 396.783 106.8H396.283ZM443.533 130.35C436.393 130.35 430.563 127.873 426.516 123.53C422.467 119.185 420.183 112.95 420.183 105.4H419.683C419.683 113.05 421.999 119.415 426.15 123.87C430.303 128.327 436.272 130.85 443.533 130.85V130.35ZM420.183 105.4C420.183 84.5061 434.501 68.45 452.333 68.45V67.95C434.165 67.95 419.683 84.2939 419.683 105.4H420.183ZM452.333 68.45C459.677 68.45 465.506 70.8303 469.5 75.0959C473.497 79.3636 475.683 85.5466 475.683 93.2H476.183C476.183 85.4534 473.969 79.1364 469.865 74.7541C465.76 70.3697 459.789 67.95 452.333 67.95V68.45ZM475.683 93.2C475.683 114.096 461.363 130.35 443.533 130.35V130.85C461.702 130.85 476.183 114.304 476.183 93.2H475.683ZM603.217 117.2L603.455 117.278L603.563 116.95H603.217V117.2ZM580.017 117.2V116.95H579.855L579.789 117.098L580.017 117.2ZM532.217 105.2L532.217 104.95L531.967 104.951V105.2H532.217ZM604.817 105L604.818 105.25L605.03 105.249L605.064 105.04L604.817 105ZM606.017 97.6L606.264 97.64L606.264 97.6381L606.017 97.6ZM583.817 90V90.25H584.031L584.064 90.0388L583.817 90ZM534.817 90L534.58 89.9209L534.47 90.25H534.817V90ZM554.417 151.65C576.918 151.65 596.619 137.987 603.455 117.278L602.98 117.122C596.216 137.613 576.716 151.15 554.417 151.15V151.65ZM603.217 116.95H580.017V117.45H603.217V116.95ZM579.789 117.098C575.634 126.397 566.731 131.75 555.617 131.75V132.25C566.903 132.25 576 126.803 580.245 117.302L579.789 117.098ZM555.617 131.75C548.07 131.75 542.296 129.418 538.404 125.034C534.508 120.645 532.467 114.163 532.467 105.8H531.967C531.967 114.237 534.026 120.855 538.03 125.366C542.039 129.882 547.964 132.25 555.617 132.25V131.75ZM532.467 105.8V105.2H531.967V105.8H532.467ZM532.218 105.45L604.818 105.25L604.817 104.75L532.217 104.95L532.218 105.45ZM605.064 105.04L606.264 97.64L605.77 97.56L604.57 104.96L605.064 105.04ZM606.264 97.6381C608.572 82.6856 605.566 70.1086 598.285 61.2661C591.003 52.4221 579.476 47.35 564.817 47.35V47.85C579.359 47.85 590.731 52.8779 597.899 61.5839C605.069 70.2914 608.062 82.7144 605.77 97.5619L606.264 97.6381ZM564.817 47.35C533.462 47.35 509.367 73.28 509.367 107.2H509.867C509.867 73.52 533.773 47.85 564.817 47.85V47.35ZM509.367 107.2C509.367 120.953 513.685 132.072 521.492 139.753C529.298 147.434 540.566 151.65 554.417 151.65V151.15C540.668 151.15 529.536 146.966 521.843 139.397C514.149 131.828 509.867 120.847 509.867 107.2H509.367ZM563.417 67.05C570.565 67.05 576.139 69.3322 579.655 73.3154C583.17 77.2974 584.661 83.017 583.57 89.9612L584.064 90.0388C585.173 82.983 583.665 77.1026 580.03 72.9846C576.396 68.8678 570.669 66.55 563.417 66.55V67.05ZM583.817 89.75H534.817V90.25H583.817V89.75ZM535.054 90.0791C539.629 76.355 550.55 67.05 563.417 67.05V66.55C550.284 66.55 539.205 76.045 534.58 89.9209L535.054 90.0791Z" fill="#7A7A7A"/>
</svg>
