<svg width="1197" height="152" viewBox="0 0 1197 152" fill="none" xmlns="http://www.w3.org/2000/svg">
<path d="M3.6 50.2V49.95H3.38751L3.35327 50.1597L3.6 50.2ZM0.4 69.8L0.153267 69.7597L0.105874 70.05H0.4V69.8ZM14.6 69.8L14.8469 69.8393L14.8929 69.55H14.6V69.8ZM2 149L1.75311 148.961L1.70708 149.25H2V149ZM25.2 149V149.25H25.4134L25.4469 149.039L25.2 149ZM37.8 69.8V69.55H37.5866L37.5531 69.7607L37.8 69.8ZM60.8 69.8V70.05H61.0125L61.0467 69.8403L60.8 69.8ZM64 50.2L64.2467 50.2403L64.2941 49.95H64V50.2ZM40.8 50.2L40.5532 50.1602L40.5064 50.45H40.8V50.2ZM42.8 37.8L43.0468 37.8398L43.047 37.8383L42.8 37.8ZM68.8 21.4V21.65H69.0135L69.0469 21.4391L68.8 21.4ZM72 1.2L72.2469 1.23911L72.2837 1.00694L72.0542 0.955949L72 1.2ZM19.6 37.8L19.3532 37.7602L19.3532 37.7602L19.6 37.8ZM17.6 50.2V50.45H17.8129L17.8468 50.2398L17.6 50.2ZM3.35327 50.1597L0.153267 69.7597L0.646733 69.8403L3.84673 50.2403L3.35327 50.1597ZM0.4 70.05H14.6V69.55H0.4V70.05ZM14.3531 69.7607L1.75311 148.961L2.2469 149.039L14.8469 69.8393L14.3531 69.7607ZM2 149.25H25.2V148.75H2V149.25ZM25.4469 149.039L38.0469 69.8393L37.5531 69.7607L24.9531 148.961L25.4469 149.039ZM37.8 70.05H60.8V69.55H37.8V70.05ZM61.0467 69.8403L64.2467 50.2403L63.7533 50.1597L60.5533 69.7597L61.0467 69.8403ZM64 49.95H40.8V50.45H64V49.95ZM41.0468 50.2398L43.0468 37.8398L42.5532 37.7602L40.5532 50.1602L41.0468 50.2398ZM43.047 37.8383C43.9428 32.0658 45.7282 27.9791 48.5704 25.333C51.4086 22.6904 55.3383 21.45 60.6 21.45V20.95C55.2617 20.95 51.1914 22.2095 48.2296 24.967C45.2718 27.7209 43.4572 31.9341 42.553 37.7617L43.047 37.8383ZM60.6 21.45C61.9946 21.45 63.3401 21.4998 64.6908 21.5498C66.0401 21.5998 67.3946 21.65 68.8 21.65V21.15C67.4054 21.15 66.0599 21.1002 64.7093 21.0502C63.3599 21.0002 62.0054 20.95 60.6 20.95V21.45ZM69.0469 21.4391L72.2469 1.23911L71.7531 1.16088L68.5531 21.3609L69.0469 21.4391ZM72.0542 0.955949C68.4265 0.149787 64.0041 -0.0500035 60 -0.0500035V0.449996C63.9959 0.449996 68.3735 0.650201 71.9458 1.44404L72.0542 0.955949ZM60 -0.0500035C48.651 -0.0500035 39.4854 3.16514 32.6548 9.51692C25.827 15.866 21.359 25.324 19.3532 37.7602L19.8468 37.8398C21.841 25.476 26.273 16.134 32.9952 9.88307C39.7146 3.63486 48.749 0.449996 60 0.449996V-0.0500035ZM19.3532 37.7602L17.3532 50.1602L17.8468 50.2398L19.8468 37.8398L19.3532 37.7602ZM17.6 49.95H3.6V50.45H17.6V49.95ZM148.467 117.2L148.705 117.278L148.813 116.95H148.467V117.2ZM125.267 117.2V116.95H125.105L125.039 117.098L125.267 117.2ZM77.4672 105.2L77.4665 104.95L77.2172 104.951V105.2H77.4672ZM150.067 105L150.068 105.25L150.28 105.249L150.314 105.04L150.067 105ZM151.267 97.6L151.514 97.64L151.514 97.6381L151.267 97.6ZM129.067 90V90.25H129.281L129.314 90.0388L129.067 90ZM80.0672 90L79.83 89.9209L79.7203 90.25H80.0672V90ZM99.6672 151.65C122.168 151.65 141.869 137.987 148.705 117.278L148.23 117.122C141.466 137.613 121.966 151.15 99.6672 151.15V151.65ZM148.467 116.95H125.267V117.45H148.467V116.95ZM125.039 117.098C120.884 126.397 111.981 131.75 100.867 131.75V132.25C112.153 132.25 121.25 126.803 125.495 117.302L125.039 117.098ZM100.867 131.75C93.3204 131.75 87.5458 129.418 83.6542 125.034C79.7583 120.645 77.7172 114.163 77.7172 105.8H77.2172C77.2172 114.237 79.2761 120.855 83.2802 125.366C87.2886 129.882 93.214 132.25 100.867 132.25V131.75ZM77.7172 105.8V105.2H77.2172V105.8H77.7172ZM77.4679 105.45L150.068 105.25L150.067 104.75L77.4665 104.95L77.4679 105.45ZM150.314 105.04L151.514 97.64L151.02 97.56L149.82 104.96L150.314 105.04ZM151.514 97.6381C153.822 82.6856 150.816 70.1086 143.535 61.2661C136.253 52.4221 124.726 47.35 110.067 47.35V47.85C124.609 47.85 135.981 52.8779 143.149 61.5839C150.319 70.2914 153.312 82.7144 151.02 97.5619L151.514 97.6381ZM110.067 47.35C78.7117 47.35 54.6172 73.28 54.6172 107.2H55.1172C55.1172 73.52 79.0227 47.85 110.067 47.85V47.35ZM54.6172 107.2C54.6172 120.953 58.9351 132.072 66.7419 139.753C74.5481 147.434 85.8163 151.65 99.6672 151.65V151.15C85.9181 151.15 74.7862 146.966 67.0925 139.397C59.3993 131.828 55.1172 120.847 55.1172 107.2H54.6172ZM108.667 67.05C115.815 67.05 121.389 69.3322 124.905 73.3154C128.42 77.2974 129.911 83.017 128.82 89.9612L129.314 90.0388C130.423 82.983 128.915 77.1026 125.28 72.9846C121.646 68.8678 115.919 66.55 108.667 66.55V67.05ZM129.067 89.75H80.0672V90.25H129.067V89.75ZM80.3044 90.0791C84.879 76.355 95.8 67.05 108.667 67.05V66.55C95.5344 66.55 84.4553 76.045 79.83 89.9209L80.3044 90.0791ZM216.88 134.2L217.129 134.21L216.659 134.083L216.88 134.2ZM216.28 149L216.03 148.99L216.019 149.25H216.28V149ZM236.88 149V149.25H237.093L237.127 149.039L236.88 149ZM246.48 88.8L246.727 88.8394L246.727 88.8389L246.48 88.8ZM162.28 82.6L162.033 82.5625L161.989 82.85H162.28V82.6ZM183.28 82.6V82.85H183.497L183.527 82.6354L183.28 82.6ZM223.88 85L223.633 84.9602L223.632 84.9687L223.631 84.9774L223.88 85ZM223.68 87.2L223.702 87.449L223.91 87.4306L223.929 87.2226L223.68 87.2ZM194.28 89.8L194.299 90.0493L194.302 90.049L194.28 89.8ZM200.48 105.2L200.498 105.449L200.501 105.449L200.48 105.2ZM221.28 103.4L221.527 103.437L221.573 103.124L221.258 103.151L221.28 103.4ZM220.48 108.8L220.232 108.763L220.232 108.764L220.48 108.8ZM183.08 151.85C197.944 151.85 211.446 145.021 217.101 134.317L216.659 134.083C211.114 144.579 197.815 151.35 183.08 151.35V151.85ZM216.63 134.19L216.03 148.99L216.529 149.01L217.129 134.21L216.63 134.19ZM216.28 149.25H236.88V148.75H216.28V149.25ZM237.127 149.039L246.727 88.8394L246.233 88.7606L236.633 148.961L237.127 149.039ZM246.727 88.8389C248.735 76.0836 246.028 65.6498 239.313 58.4051C232.601 51.1636 221.925 47.15 208.08 47.15V47.65C221.834 47.65 232.358 51.6364 238.946 58.7449C245.532 65.8502 248.224 76.1164 246.233 88.7611L246.727 88.8389ZM208.08 47.15C195.14 47.15 184.481 50.3601 176.627 56.4018C168.77 62.4459 163.741 71.3068 162.033 82.5625L162.527 82.6375C164.218 71.4932 169.189 62.7541 176.932 56.7982C184.678 50.8399 195.22 47.65 208.08 47.65V47.15ZM162.28 82.85H183.28V82.35H162.28V82.85ZM183.527 82.6354C184.32 77.0874 186.593 72.9529 190.279 70.2003C193.971 67.4435 199.112 66.05 205.68 66.05V65.55C199.048 65.55 193.788 66.9565 189.98 69.7997C186.167 72.6471 183.84 76.9126 183.032 82.5646L183.527 82.6354ZM205.68 66.05C212.445 66.05 217.415 67.7418 220.449 70.9225C223.477 74.0976 224.625 78.8082 223.633 84.9602L224.127 85.0398C225.134 78.7918 223.982 73.9024 220.811 70.5774C217.645 67.2582 212.515 65.55 205.68 65.55V66.05ZM223.631 84.9774L223.431 87.1774L223.929 87.2226L224.129 85.0226L223.631 84.9774ZM223.658 86.951L194.258 89.551L194.302 90.049L223.702 87.449L223.658 86.951ZM194.261 89.5507C181.129 90.5531 170.822 94.1638 163.793 100.109C156.757 106.061 153.03 114.333 153.03 124.6H153.53C153.53 114.467 157.202 106.339 164.116 100.491C171.038 94.6362 181.23 91.0469 194.299 90.0493L194.261 89.5507ZM153.03 124.6C153.03 132.666 156.056 139.485 161.337 144.285C166.615 149.084 174.128 151.85 183.08 151.85V151.35C174.231 151.35 166.844 148.616 161.673 143.915C156.503 139.215 153.53 132.534 153.53 124.6H153.03ZM192.08 133.35C187.415 133.35 183.726 132.258 181.208 130.303C178.698 128.353 177.33 125.528 177.33 122H176.83C176.83 125.672 178.261 128.647 180.901 130.697C183.534 132.742 187.344 133.85 192.08 133.85V133.35ZM177.33 122C177.33 117.171 179.098 113.349 182.853 110.576C186.623 107.792 192.418 106.048 200.498 105.449L200.461 104.951C192.341 105.552 186.436 107.308 182.556 110.174C178.661 113.051 176.83 117.029 176.83 122H177.33ZM200.501 105.449L221.301 103.649L221.258 103.151L200.458 104.951L200.501 105.449ZM221.032 103.363L220.232 108.763L220.727 108.837L221.527 103.437L221.032 103.363ZM220.232 108.764C219.14 116.312 215.865 122.455 210.99 126.712C206.115 130.968 199.626 133.35 192.08 133.35V133.85C199.734 133.85 206.344 131.432 211.319 127.088C216.294 122.745 219.62 116.488 220.727 108.836L220.232 108.764ZM284.13 149V149.25H284.344L284.377 149.039L284.13 149ZM296.53 69.8V69.55H296.316L296.283 69.7613L296.53 69.8ZM315.33 69.8V70.05H315.542L315.576 69.8403L315.33 69.8ZM318.53 50.2L318.776 50.2403L318.824 49.95H318.53V50.2ZM299.73 50.2L299.483 50.1613L299.437 50.45H299.73V50.2ZM304.53 19.6L304.777 19.6387L304.822 19.35H304.53V19.6ZM281.13 19.6V19.35H280.916L280.883 19.5613L281.13 19.6ZM276.33 50.2V50.45H276.544L276.577 50.2387L276.33 50.2ZM257.53 50.2V49.95H257.317L257.283 50.1597L257.53 50.2ZM254.33 69.8L254.083 69.7597L254.036 70.05H254.33V69.8ZM273.13 69.8L273.377 69.8387L273.422 69.55H273.13V69.8ZM260.73 149L260.483 148.961L260.438 149.25H260.73V149ZM284.377 149.039L296.777 69.8387L296.283 69.7613L283.883 148.961L284.377 149.039ZM296.53 70.05H315.33V69.55H296.53V70.05ZM315.576 69.8403L318.776 50.2403L318.283 50.1597L315.083 69.7597L315.576 69.8403ZM318.53 49.95H299.73V50.45H318.53V49.95ZM299.977 50.2387L304.777 19.6387L304.283 19.5613L299.483 50.1613L299.977 50.2387ZM304.53 19.35H281.13V19.85H304.53V19.35ZM280.883 19.5613L276.083 50.1613L276.577 50.2387L281.377 19.6387L280.883 19.5613ZM276.33 49.95H257.53V50.45H276.33V49.95ZM257.283 50.1597L254.083 69.7597L254.576 69.8403L257.776 50.2403L257.283 50.1597ZM254.33 70.05H273.13V69.55H254.33V70.05ZM272.883 69.7613L260.483 148.961L260.977 149.039L273.377 69.8387L272.883 69.7613ZM260.73 149.25H284.13V148.75H260.73V149.25ZM391.136 50.2V49.95H390.922L390.889 50.1618L391.136 50.2ZM382.936 103.2L383.183 103.24L383.183 103.238L382.936 103.2ZM339.336 104.8L339.583 104.84L339.583 104.84L339.336 104.8ZM348.136 50.2L348.383 50.2398L348.429 49.95H348.136V50.2ZM324.736 50.2V49.95H324.523L324.489 50.1606L324.736 50.2ZM315.136 110.4L315.383 110.44L315.383 110.439L315.136 110.4ZM377.536 135.6L377.786 135.604L377.797 134.86L377.339 135.446L377.536 135.6ZM377.336 149L377.086 148.996L377.082 149.25H377.336V149ZM399.136 149V149.25H399.35L399.383 149.039L399.136 149ZM414.736 50.2L414.983 50.239L415.029 49.95H414.736V50.2ZM390.889 50.1618L382.689 103.162L383.183 103.238L391.383 50.2382L390.889 50.1618ZM382.689 103.16C381.295 111.825 378.211 118.572 373.732 123.15C369.258 127.724 363.374 130.15 356.336 130.15V130.65C363.498 130.65 369.514 128.176 374.09 123.5C378.661 118.828 381.777 111.975 383.183 103.24L382.689 103.16ZM356.336 130.15C350.003 130.15 345.188 127.779 342.268 123.46C339.341 119.131 338.289 112.803 339.583 104.84L339.089 104.76C337.783 112.797 338.831 119.269 341.854 123.74C344.884 128.221 349.869 130.65 356.336 130.65V130.15ZM339.583 104.84L348.383 50.2398L347.889 50.1602L339.089 104.76L339.583 104.84ZM348.136 49.95H324.736V50.45H348.136V49.95ZM324.489 50.1606L314.889 110.361L315.383 110.439L324.983 50.2394L324.489 50.1606ZM314.889 110.36C312.98 122.017 315.49 132.39 321.238 139.853C326.988 147.318 335.963 151.85 346.936 151.85V151.35C336.109 151.35 327.284 146.882 321.634 139.547C315.982 132.21 313.492 121.983 315.383 110.44L314.889 110.36ZM346.936 151.85C353.569 151.85 359.111 150.593 364.079 147.946C369.044 145.299 373.419 141.272 377.733 135.754L377.339 135.446C373.053 140.928 368.728 144.901 363.843 147.504C358.961 150.107 353.502 151.35 346.936 151.35V151.85ZM377.286 135.596L377.086 148.996L377.586 149.004L377.786 135.604L377.286 135.596ZM377.336 149.25H399.136V148.75H377.336V149.25ZM399.383 149.039L414.983 50.239L414.489 50.161L398.889 148.961L399.383 149.039ZM414.736 49.95H391.136V50.45H414.736V49.95ZM492.394 49.6L492.64 49.6404L492.678 49.4101L492.451 49.3566L492.394 49.6ZM452.994 65.4L452.744 65.3869L453.216 65.5152L452.994 65.4ZM453.794 50.2L454.043 50.2131L454.057 49.95H453.794V50.2ZM431.994 50.2V49.95H431.78L431.747 50.161L431.994 50.2ZM416.394 149L416.147 148.961L416.101 149.25H416.394V149ZM439.794 149V149.25H440.007L440.041 149.039L439.794 149ZM447.594 100.2L447.841 100.239L447.841 100.239L447.594 100.2ZM488.794 71.6V71.85H489.006L489.04 71.6404L488.794 71.6ZM492.451 49.3566C489.03 48.5517 485.211 48.15 481.594 48.15V48.65C485.177 48.65 488.957 49.0482 492.336 49.8434L492.451 49.3566ZM481.594 48.15C468.701 48.15 458.215 54.8014 452.772 65.2848L453.216 65.5152C458.572 55.1986 468.886 48.65 481.594 48.65V48.15ZM453.243 65.4131L454.043 50.2131L453.544 50.1869L452.744 65.3869L453.243 65.4131ZM453.794 49.95H431.994V50.45H453.794V49.95ZM431.747 50.161L416.147 148.961L416.641 149.039L432.241 50.239L431.747 50.161ZM416.394 149.25H439.794V148.75H416.394V149.25ZM440.041 149.039L447.841 100.239L447.347 100.161L439.547 148.961L440.041 149.039ZM447.841 100.239C449.333 90.7859 453.16 83.6943 458.706 78.9652C464.252 74.2359 471.541 71.85 479.994 71.85V71.35C471.446 71.35 464.035 73.7641 458.382 78.5848C452.728 83.4057 448.854 90.6141 447.347 100.161L447.841 100.239ZM479.994 71.85H488.794V71.35H479.994V71.85ZM489.04 71.6404L492.64 49.6404L492.147 49.5596L488.547 71.5596L489.04 71.6404ZM576.631 117.2L576.869 117.278L576.977 116.95H576.631V117.2ZM553.431 117.2V116.95H553.269L553.203 117.098L553.431 117.2ZM505.631 105.2L505.631 104.95L505.381 104.951V105.2H505.631ZM578.231 105L578.232 105.25L578.444 105.249L578.478 105.04L578.231 105ZM579.431 97.6L579.678 97.64L579.678 97.6381L579.431 97.6ZM557.231 90V90.25H557.445L557.478 90.0388L557.231 90ZM508.231 90L507.994 89.9209L507.884 90.25H508.231V90ZM527.831 151.65C550.332 151.65 570.033 137.987 576.869 117.278L576.394 117.122C569.63 137.613 550.13 151.15 527.831 151.15V151.65ZM576.631 116.95H553.431V117.45H576.631V116.95ZM553.203 117.098C549.048 126.397 540.145 131.75 529.031 131.75V132.25C540.317 132.25 549.414 126.803 553.66 117.302L553.203 117.098ZM529.031 131.75C521.484 131.75 515.71 129.418 511.818 125.034C507.922 120.645 505.881 114.163 505.881 105.8H505.381C505.381 114.237 507.44 120.855 511.444 125.366C515.453 129.882 521.378 132.25 529.031 132.25V131.75ZM505.881 105.8V105.2H505.381V105.8H505.881ZM505.632 105.45L578.232 105.25L578.231 104.75L505.631 104.95L505.632 105.45ZM578.478 105.04L579.678 97.64L579.184 97.56L577.984 104.96L578.478 105.04ZM579.678 97.6381C581.986 82.6856 578.98 70.1086 571.699 61.2661C564.417 52.4221 552.89 47.35 538.231 47.35V47.85C552.773 47.85 564.145 52.8779 571.313 61.5839C578.483 70.2914 581.476 82.7144 579.184 97.5619L579.678 97.6381ZM538.231 47.35C506.876 47.35 482.781 73.28 482.781 107.2H483.281C483.281 73.52 507.187 47.85 538.231 47.85V47.35ZM482.781 107.2C482.781 120.953 487.099 132.072 494.906 139.753C502.712 147.434 513.98 151.65 527.831 151.65V151.15C514.082 151.15 502.95 146.966 495.257 139.397C487.563 131.828 483.281 120.847 483.281 107.2H482.781ZM536.831 67.05C543.979 67.05 549.553 69.3322 553.069 73.3154C556.584 77.2974 558.076 83.017 556.984 89.9612L557.478 90.0388C558.587 82.983 557.079 77.1026 553.444 72.9846C549.81 68.8678 544.084 66.55 536.831 66.55V67.05ZM557.231 89.75H508.231V90.25H557.231V89.75ZM508.468 90.0791C513.043 76.355 523.964 67.05 536.831 67.05V66.55C523.698 66.55 512.619 76.045 507.994 89.9209L508.468 90.0791ZM657.82 133.8L658.07 133.813L658.117 132.924L657.614 133.659L657.82 133.8ZM657.02 149L656.771 148.987L656.757 149.25H657.02V149ZM678.82 149V149.25H679.034L679.067 149.039L678.82 149ZM702.42 0.199996L702.667 0.239158L702.713 -0.0500035H702.42V0.199996ZM679.02 0.199996V-0.0500035H678.806L678.773 0.161471L679.02 0.199996ZM668.82 65.6L668.592 65.7015L668.937 66.4771L669.067 65.6385L668.82 65.6ZM624.22 151.65C638.904 151.65 650.181 145.408 658.027 133.941L657.614 133.659C649.86 144.992 638.737 151.15 624.22 151.15V151.65ZM657.571 133.787L656.771 148.987L657.27 149.013L658.07 133.813L657.571 133.787ZM657.02 149.25H678.82V148.75H657.02V149.25ZM679.067 149.039L702.667 0.239158L702.173 0.160835L678.573 148.961L679.067 149.039ZM702.42 -0.0500035H679.02V0.449996H702.42V-0.0500035ZM678.773 0.161471L668.573 65.5615L669.067 65.6385L679.267 0.238522L678.773 0.161471ZM669.049 65.4985C664.197 54.5831 651.088 47.35 636.02 47.35V47.85C650.952 47.85 663.843 55.0169 668.592 65.7015L669.049 65.4985ZM636.02 47.35C606.254 47.35 583.97 71.8915 583.97 106.8H584.47C584.47 72.1085 606.586 47.85 636.02 47.85V47.35ZM583.97 106.8C583.97 120.053 588.188 131.266 595.335 139.168C602.484 147.071 612.551 151.65 624.22 151.65V151.15C612.689 151.15 602.757 146.629 595.706 138.832C588.653 131.034 584.47 119.947 584.47 106.8H583.97ZM631.22 130.35C624.081 130.35 618.25 127.873 614.203 123.53C610.155 119.185 607.87 112.95 607.87 105.4H607.37C607.37 113.05 609.686 119.415 613.837 123.87C617.99 128.327 623.96 130.85 631.22 130.85V130.35ZM607.87 105.4C607.87 84.5061 622.188 68.45 640.02 68.45V67.95C621.852 67.95 607.37 84.2939 607.37 105.4H607.87ZM640.02 68.45C647.364 68.45 653.193 70.8303 657.188 75.0959C661.184 79.3636 663.37 85.5466 663.37 93.2H663.87C663.87 85.4534 661.656 79.1364 657.553 74.7541C653.447 70.3697 647.476 67.95 640.02 67.95V68.45ZM663.37 93.2C663.37 114.096 649.051 130.35 631.22 130.35V130.85C649.39 130.85 663.87 114.304 663.87 93.2H663.37ZM702.705 106L702.458 105.962L702.414 106.25H702.705V106ZM765.505 106V106.25H765.717L765.751 106.04L765.505 106ZM768.905 85L769.151 85.04L769.198 84.75H768.905V85ZM705.905 85V84.75H705.69L705.658 84.9623L705.905 85ZM702.705 106.25H765.505V105.75H702.705V106.25ZM765.751 106.04L769.151 85.04L768.658 84.96L765.258 105.96L765.751 106.04ZM768.905 84.75H705.905V85.25H768.905V84.75ZM705.658 84.9623L702.458 105.962L702.952 106.038L706.152 85.0377L705.658 84.9623ZM790.164 149L789.917 149.04L789.951 149.25H790.164V149ZM813.364 149V149.25H813.526L813.592 149.103L813.364 149ZM832.964 105.4L833.192 105.503L833.195 105.497L832.964 105.4ZM844.764 76.6L845.014 76.59L844.531 76.5086L844.764 76.6ZM847.764 105L847.516 105.032L847.517 105.039L847.764 105ZM854.764 149L854.517 149.039L854.551 149.25H854.764V149ZM876.364 149V149.25H876.519L876.588 149.111L876.364 149ZM925.364 50.2L925.588 50.3111L925.767 49.95H925.364V50.2ZM899.764 50.2V49.95H899.604L899.537 50.0949L899.764 50.2ZM879.564 93.8L879.791 93.9053L879.791 93.9051L879.564 93.8ZM869.164 119L868.915 119.021L869.397 119.092L869.164 119ZM866.764 93.8L867.012 93.7662L867.012 93.7659L866.764 93.8ZM860.764 50.2L861.012 50.1659L860.982 49.95H860.764V50.2ZM836.764 50.2V49.95H836.604L836.537 50.0949L836.764 50.2ZM816.564 93.8L816.337 93.6949L816.337 93.6962L816.564 93.8ZM806.164 119L805.915 119.017L806.399 119.086L806.164 119ZM803.764 93.8L803.516 93.8341L803.516 93.8344L803.764 93.8ZM797.764 50.2L798.012 50.1659L797.982 49.95H797.764V50.2ZM774.164 50.2V49.95H773.87L773.917 50.24L774.164 50.2ZM790.164 149.25H813.364V148.75H790.164V149.25ZM813.592 149.103L833.192 105.503L832.736 105.297L813.136 148.897L813.592 149.103ZM833.195 105.497C837.395 95.4959 842.796 82.294 844.997 76.6914L844.531 76.5086C842.332 82.106 836.933 95.3041 832.734 105.303L833.195 105.497ZM844.514 76.61C844.715 81.6231 846.316 95.8343 847.516 105.032L848.012 104.968C846.812 95.7657 845.213 81.5769 845.014 76.59L844.514 76.61ZM847.517 105.039L854.517 149.039L855.011 148.961L848.011 104.961L847.517 105.039ZM854.764 149.25H876.364V148.75H854.764V149.25ZM876.588 149.111L925.588 50.3111L925.14 50.0889L876.14 148.889L876.588 149.111ZM925.364 49.95H899.764V50.45H925.364V49.95ZM899.537 50.0949L879.337 93.6949L879.791 93.9051L899.991 50.3051L899.537 50.0949ZM879.337 93.6947C876.734 99.3028 872.331 110.311 868.932 118.908L869.397 119.092C872.798 110.489 877.195 99.4972 879.791 93.9053L879.337 93.6947ZM869.413 118.979C868.813 111.782 867.613 98.1743 867.012 93.7662L866.516 93.8338C867.115 98.2257 868.315 111.818 868.915 119.021L869.413 118.979ZM867.012 93.7659L861.012 50.1659L860.516 50.2341L866.516 93.8341L867.012 93.7659ZM860.764 49.95H836.764V50.45H860.764V49.95ZM836.537 50.0949L816.337 93.6949L816.791 93.9051L836.991 50.3051L836.537 50.0949ZM816.337 93.6962C812.134 102.902 808.732 111.308 805.929 118.914L806.399 119.086C809.197 111.492 812.594 103.098 816.791 93.9038L816.337 93.6962ZM806.413 118.983C805.813 110.181 805.013 100.974 804.012 93.7656L803.516 93.8344C804.515 101.026 805.315 110.219 805.915 119.017L806.413 118.983ZM804.012 93.7659L798.012 50.1659L797.516 50.2341L803.516 93.8341L804.012 93.7659ZM797.764 49.95H774.164V50.45H797.764V49.95ZM773.917 50.24L789.917 149.04L790.411 148.96L774.411 50.16L773.917 50.24ZM912.891 106.6C912.891 120.061 917.664 131.329 925.994 139.231C934.322 147.132 946.187 151.65 960.341 151.65V151.15C946.294 151.15 934.559 146.668 926.338 138.869C918.117 131.071 913.391 119.939 913.391 106.6H912.891ZM960.341 151.65C992.883 151.65 1018.59 125.534 1018.59 92.4H1018.09C1018.09 125.266 992.599 151.15 960.341 151.15V151.65ZM1018.59 92.4C1018.59 78.9385 1013.82 67.6705 1005.49 59.7686C997.159 51.8678 985.294 47.35 971.141 47.35V47.85C985.187 47.85 996.922 52.3322 1005.14 60.1314C1013.36 67.9295 1018.09 79.0615 1018.09 92.4H1018.59ZM971.141 47.35C938.799 47.35 912.891 73.4653 912.891 106.6H913.391C913.391 73.7347 939.082 47.85 971.141 47.85V47.35ZM937.391 104.8C937.391 84.5131 952.102 68.45 969.941 68.45V67.95C951.779 67.95 936.891 84.2869 936.891 104.8H937.391ZM969.941 68.45C977.382 68.45 983.412 70.9783 987.583 75.4456C991.756 79.9149 994.091 86.3491 994.091 94.2H994.591C994.591 86.2509 992.225 79.6851 987.948 75.1044C983.67 70.5217 977.5 67.95 969.941 67.95V68.45ZM994.091 94.2C994.091 114.288 979.578 130.35 961.741 130.35V130.85C979.903 130.85 994.591 114.512 994.591 94.2H994.091ZM961.741 130.35C954.199 130.35 948.118 127.821 943.922 123.378C939.725 118.934 937.391 112.55 937.391 104.8H936.891C936.891 112.65 939.256 119.166 943.559 123.722C947.863 128.279 954.083 130.85 961.741 130.85V130.35ZM1097.13 49.6L1097.37 49.6404L1097.41 49.4101L1097.19 49.3566L1097.13 49.6ZM1057.73 65.4L1057.48 65.3869L1057.95 65.5152L1057.73 65.4ZM1058.53 50.2L1058.78 50.2131L1058.79 49.95H1058.53V50.2ZM1036.73 50.2V49.95H1036.51L1036.48 50.161L1036.73 50.2ZM1021.13 149L1020.88 148.961L1020.84 149.25H1021.13V149ZM1044.53 149V149.25H1044.74L1044.77 149.039L1044.53 149ZM1052.33 100.2L1052.57 100.239L1052.58 100.239L1052.33 100.2ZM1093.53 71.6V71.85H1093.74L1093.77 71.6404L1093.53 71.6ZM1097.19 49.3566C1093.76 48.5517 1089.95 48.15 1086.33 48.15V48.65C1089.91 48.65 1093.69 49.0482 1097.07 49.8434L1097.19 49.3566ZM1086.33 48.15C1073.44 48.15 1062.95 54.8014 1057.51 65.2848L1057.95 65.5152C1063.31 55.1986 1073.62 48.65 1086.33 48.65V48.15ZM1057.98 65.4131L1058.78 50.2131L1058.28 50.1869L1057.48 65.3869L1057.98 65.4131ZM1058.53 49.95H1036.73V50.45H1058.53V49.95ZM1036.48 50.161L1020.88 148.961L1021.38 149.039L1036.98 50.239L1036.48 50.161ZM1021.13 149.25H1044.53V148.75H1021.13V149.25ZM1044.77 149.039L1052.57 100.239L1052.08 100.161L1044.28 148.961L1044.77 149.039ZM1052.58 100.239C1054.07 90.7859 1057.89 83.6943 1063.44 78.9652C1068.99 74.2359 1076.28 71.85 1084.73 71.85V71.35C1076.18 71.35 1068.77 73.7641 1063.12 78.5848C1057.46 83.4057 1053.59 90.6141 1052.08 100.161L1052.58 100.239ZM1084.73 71.85H1093.53V71.35H1084.73V71.85ZM1093.77 71.6404L1097.37 49.6404L1096.88 49.5596L1093.28 71.5596L1093.77 71.6404ZM1113.69 149V149.25H1113.9L1113.93 149.039L1113.69 149ZM1117.89 122.2L1117.72 122.016L1117.65 122.075L1117.64 122.161L1117.89 122.2ZM1134.69 106.8L1134.91 106.697L1134.77 106.382L1134.52 106.616L1134.69 106.8ZM1153.69 149L1153.46 149.103L1153.52 149.25H1153.69V149ZM1178.89 149V149.25H1179.27L1179.11 148.897L1178.89 149ZM1152.89 91.2L1152.72 91.0175L1152.58 91.1396L1152.66 91.3026L1152.89 91.2ZM1196.69 50.2L1196.86 50.3825L1197.32 49.95H1196.69V50.2ZM1166.89 50.2V49.95H1166.79L1166.72 50.0175L1166.89 50.2ZM1122.89 91.4L1122.64 91.361L1122.53 92.08L1123.06 91.5825L1122.89 91.4ZM1137.29 0.199996L1137.53 0.238987L1137.58 -0.0500035H1137.29V0.199996ZM1113.69 0.199996V-0.0500035H1113.47L1113.44 0.161159L1113.69 0.199996ZM1090.29 149L1090.04 148.961L1089.99 149.25H1090.29V149ZM1113.93 149.039L1118.13 122.239L1117.64 122.161L1113.44 148.961L1113.93 149.039ZM1118.05 122.384L1134.85 106.984L1134.52 106.616L1117.72 122.016L1118.05 122.384ZM1134.46 106.903L1153.46 149.103L1153.91 148.897L1134.91 106.697L1134.46 106.903ZM1153.69 149.25H1178.89V148.75H1153.69V149.25ZM1179.11 148.897L1153.11 91.0974L1152.66 91.3026L1178.66 149.103L1179.11 148.897ZM1153.06 91.3825L1196.86 50.3825L1196.52 50.0175L1152.72 91.0175L1153.06 91.3825ZM1196.69 49.95H1166.89V50.45H1196.69V49.95ZM1166.72 50.0175L1122.72 91.2175L1123.06 91.5825L1167.06 50.3825L1166.72 50.0175ZM1123.13 91.439L1137.53 0.238987L1137.04 0.161006L1122.64 91.361L1123.13 91.439ZM1137.29 -0.0500035H1113.69V0.449996H1137.29V-0.0500035ZM1113.44 0.161159L1090.04 148.961L1090.53 149.039L1113.93 0.238834L1113.44 0.161159ZM1090.29 149.25H1113.69V148.75H1090.29V149.25Z" fill="#7A7A7A"/>
</svg>
