<svg width="28" height="28" viewBox="0 0 28 28" fill="none" xmlns="http://www.w3.org/2000/svg">
<path d="M14 28C21.732 28 28 21.732 28 14C28 6.26801 21.732 0 14 0C6.26801 0 0 6.26801 0 14C0 21.732 6.26801 28 14 28Z" fill="#88C9F9"/>
<path d="M20.0009 1.36572C19.206 1.8075 18.5449 2.55417 17.6458 2.28428C16.1875 1.84717 14.243 0.874945 12.9791 2.08983C11.7153 3.30472 11.4236 4.42317 12.9791 4.37494C14.5347 4.32672 15.6041 2.47872 16.3819 3.2565C17.1597 4.03428 16.9645 4.66661 15.118 4.90928C13.2716 5.15194 11.2774 5.44439 10.2079 5.44439C9.13848 5.44439 8.89503 6.07594 9.62459 6.75728C10.3541 7.43861 9.1867 7.48606 7.97181 8.16661C6.75692 8.84717 8.26348 9.13883 9.2847 9.72217C10.3059 10.3055 11.0829 9.57594 11.5208 8.60372C11.9587 7.6315 13.8394 6.46483 14.6241 6.61106C15.4097 6.75728 15.4097 7.14617 15.2635 7.82594C15.1173 8.50572 15.8468 8.31206 15.895 7.53428C15.9433 6.7565 16.819 6.17317 17.4988 6.12495C18.1786 6.07672 18.7627 7.04894 17.9849 7.53428C17.2071 8.01961 16.4294 8.40928 17.4016 8.65272C18.3738 8.89617 19.0544 10.1601 17.9367 10.6944C16.819 11.2287 14.8746 11.5694 13.9996 11.1315C13.1246 10.6936 11.1311 10.0621 10.5968 10.4019C10.0625 10.7418 9.77081 11.0942 9.13848 11.3314C8.50692 11.5686 5.93015 12.7353 5.88115 14.2426C5.83215 15.7499 5.7847 17.4517 6.80515 17.4999C7.82559 17.5482 10.3051 16.8684 11.0829 16.2361C11.8607 15.6037 12.9301 15.7499 13.27 16.4787C13.6099 17.2075 13.3673 17.6454 13.0274 18.8121C12.6875 19.9787 13.2498 20.5621 13.795 21.5825C14.3403 22.6029 14.7774 23.1863 14.7774 23.9158C14.7774 24.6454 15.5551 25.3742 16.7218 24.1585C17.8885 22.9428 18.9579 20.5613 19.444 19.6863C19.9301 18.8113 20.319 16.8668 20.9024 16.4779C21.4857 16.0891 22.4097 15.1651 21.7284 15.3113C21.047 15.4575 19.6867 15.2631 19.3468 14.2908C19.0069 13.3186 17.5486 11.4714 18.2284 11.2769C18.9081 11.0825 19.6867 12.3581 19.9784 12.9601C20.27 13.5621 20.6589 14.2908 21.2423 14.4853C21.8256 14.6797 23.0895 13.1841 23.4784 12.9601C23.8673 12.7353 23.5756 11.8121 22.7978 11.9093C22.02 12.0065 20.9996 11.9093 20.9996 11.4239C20.9996 10.9386 21.9718 10.3055 22.7496 10.4517C23.5274 10.5979 24.1107 10.8406 24.5968 11.4239C25.0829 12.0073 26.0551 13.0767 26.444 13.7573C26.8329 14.4378 27.1246 14.5351 27.319 13.3202C27.4481 12.5128 27.62 12.0687 27.7779 11.5919C26.99 7.05828 24.029 3.28294 20.0009 1.36572Z" fill="#5C913B"/>
</svg>
