<svg width="28" height="28" viewBox="0 0 28 28" fill="none" xmlns="http://www.w3.org/2000/svg">
<path d="M0.0219727 13.6L6.41722 8L19.2077 8.8L20.0071 21.6L14.4113 28C14.4113 28 14.4121 23.2008 9.61484 18.4C4.81761 13.5992 0.0219727 13.6 0.0219727 13.6Z" fill="#A0041E"/>
<path d="M1.55946e-05 28.0001C1.55946e-05 28.0001 -0.028763 21.6169 2.38624 19.2001C4.80125 16.7833 11.2133 16.9497 11.2133 16.9497C11.2133 16.9497 11.2125 23.2001 8.81426 25.6001C6.41604 28.0001 1.55946e-05 28.0001 1.55946e-05 28.0001Z" fill="#FFAC33"/>
<path d="M6.4154 24.7999C8.18139 24.7999 9.61302 23.3672 9.61302 21.5999C9.61302 19.8326 8.18139 18.3999 6.4154 18.3999C4.6494 18.3999 3.21777 19.8326 3.21777 21.5999C3.21777 23.3672 4.6494 24.7999 6.4154 24.7999Z" fill="#FFCC4D"/>
<path d="M28.0005 0C28.0005 0 20.0065 0 10.4136 8C5.61717 12 5.61717 19.2 7.21598 20.8C8.81479 22.4 16.0094 22.4 20.0065 17.6C28.0005 8 28.0005 0 28.0005 0Z" fill="#55ACEE"/>
<path d="M20.8052 4C19.5077 4 18.3966 4.7768 17.8945 5.888C18.2958 5.7064 18.7379 5.6 19.2064 5.6C20.9722 5.6 22.404 7.0328 22.404 8.8C22.404 9.2688 22.2977 9.7112 22.117 10.112C23.2274 9.6104 24.0028 8.4984 24.0028 7.2C24.0028 5.4328 22.5711 4 20.8052 4Z" fill="white"/>
<path d="M5.61719 22.4C5.61719 22.4 5.61719 19.2 6.41659 18.4C7.216 17.6 16.8097 9.60084 17.6083 10.4C18.4069 11.1992 10.4128 20.8 9.61342 21.6C8.81401 22.4 5.61719 22.4 5.61719 22.4Z" fill="#A0041E"/>
</svg>
