<svg width="28" height="28" viewBox="0 0 28 28" fill="none" xmlns="http://www.w3.org/2000/svg">
<path d="M3.78496 7.08997C4.51693 6.57837 5.62032 6.67649 6.27754 7.21923L5.52377 6.12362C4.91717 5.2585 5.13442 4.32252 6.00032 3.71514C6.86622 3.11011 9.31986 4.73678 9.31986 4.73678C8.70781 3.86309 8.82228 2.7558 9.69597 2.14298C10.5697 1.53249 11.7751 1.74351 12.3871 2.61875L20.501 14.081L19.4669 24.1066L10.8367 20.9592L3.30918 9.79824C2.69169 8.9191 2.90505 7.70669 3.78496 7.08997Z" fill="#583529"/>
<path d="M2.09849 13.4665C2.09849 13.4665 1.21702 12.1817 2.50263 11.301C3.78668 10.4203 4.66738 11.7044 4.66738 11.7044L8.75626 17.6676C8.8972 17.4324 9.05138 17.2003 9.22347 16.9714L3.5484 8.69631C3.5484 8.69631 2.66771 7.41226 3.95254 6.53156C5.2366 5.65087 6.11729 6.93492 6.11729 6.93492L11.4552 14.7194C11.6537 14.5575 11.857 14.3947 12.0665 14.2351L5.87823 5.20936C5.87823 5.20936 4.99754 3.9253 6.28237 3.04461C7.56643 2.16391 8.44712 3.44797 8.44712 3.44797L14.6353 12.4722C14.8627 12.3328 15.0878 12.2121 15.3136 12.0844L9.52949 3.64965C9.52949 3.64965 8.6488 2.36559 9.93285 1.4849C11.2169 0.604205 12.0976 1.88826 12.0976 1.88826L18.2134 10.8073L19.1432 12.1638C15.2902 14.8067 14.9235 19.7786 17.1248 22.9891C17.5648 23.6315 18.2072 23.1916 18.2072 23.1916C15.5651 19.3378 16.3718 15.0076 20.2255 12.3655L19.0894 6.67951C19.0894 6.67951 18.665 5.18132 20.1625 4.75616C21.6606 4.33178 22.0858 5.82997 22.0858 5.82997L23.3979 9.72651C23.9181 11.2714 24.4717 12.8109 25.2044 14.267C27.2734 18.3785 26.0376 23.4882 22.1364 26.1646C17.8809 29.0823 12.0633 27.9976 9.14482 23.7429L2.09849 13.4665Z" fill="#7C533E"/>
<path d="M9.34447 24.9181C6.22972 24.9181 3.08227 21.7706 3.08227 18.6559C3.08227 18.2253 2.76691 17.8772 2.33629 17.8772C1.90568 17.8772 1.5249 18.2253 1.5249 18.6559C1.5249 23.328 4.67235 26.4755 9.34447 26.4755C9.77508 26.4755 10.1232 26.0947 10.1232 25.6641C10.1232 25.2334 9.77508 24.9181 9.34447 24.9181Z" fill="#5DADEC"/>
<path d="M5.4508 26.4426C3.11474 26.4426 1.55737 24.8852 1.55737 22.5492C1.55737 22.1186 1.2093 21.7705 0.778686 21.7705C0.348073 21.7705 0 22.1186 0 22.5492C0 25.6639 2.33606 28 5.4508 28C5.88142 28 6.22949 27.6519 6.22949 27.2213C6.22949 26.7907 5.88142 26.4426 5.4508 26.4426ZM18.6885 1.52466C18.2586 1.52466 17.9098 1.87351 17.9098 2.30334C17.9098 2.73318 18.2586 3.08203 18.6885 3.08203C21.8032 3.08203 24.918 5.87674 24.918 9.31152C24.918 9.74135 25.2668 10.0902 25.6966 10.0902C26.1265 10.0902 26.4753 9.74135 26.4753 9.31152C26.4753 5.01784 23.3606 1.52466 18.6885 1.52466Z" fill="#5DADEC"/>
<path d="M22.5819 0C22.1521 0 21.8032 0.316147 21.8032 0.745981C21.8032 1.17582 22.1521 1.55737 22.5819 1.55737C24.918 1.55737 26.4426 3.28995 26.4426 5.4181C26.4426 5.84793 26.8234 6.19679 27.254 6.19679C27.6846 6.19679 28 5.84793 28 5.4181C28 2.43028 25.6967 0 22.5819 0Z" fill="#5DADEC"/>
</svg>
