<svg width="20" height="20" viewBox="0 0 20 20" fill="none" xmlns="http://www.w3.org/2000/svg">
<path d="M10 1.66669L11.6767 6.02592C11.9117 6.63695 12.0292 6.94246 12.2119 7.19944C12.3738 7.4272 12.5728 7.6262 12.8006 7.78815C13.0576 7.97088 13.3631 8.08838 13.9741 8.32339L18.3334 10L13.9741 11.6767C13.3631 11.9117 13.0576 12.0292 12.8006 12.2119C12.5728 12.3738 12.3738 12.5728 12.2119 12.8006C12.0292 13.0576 11.9117 13.3631 11.6767 13.9741L10 18.3334L8.32339 13.9741C8.08838 13.3631 7.97088 13.0576 7.78815 12.8006C7.6262 12.5728 7.4272 12.3738 7.19944 12.2119C6.94246 12.0292 6.63695 11.9117 6.02593 11.6767L1.66669 10L6.02592 8.32339C6.63695 8.08838 6.94246 7.97088 7.19944 7.78815C7.4272 7.6262 7.6262 7.4272 7.78815 7.19944C7.97088 6.94246 8.08838 6.63695 8.32339 6.02592L10 1.66669Z" stroke="#1F1F1F" stroke-linecap="round" stroke-linejoin="round"/>
</svg>
