<svg width="20" height="20" viewBox="0 0 20 20" fill="none" xmlns="http://www.w3.org/2000/svg">
<path d="M10 1.66667L11.6766 6.02591C11.9116 6.63693 12.0291 6.94244 12.2119 7.19943C12.3738 7.42719 12.5728 7.62618 12.8006 7.78813C13.0576 7.97086 13.3631 8.08836 13.9741 8.32337L18.3333 10L13.9741 11.6766C13.3631 11.9116 13.0576 12.0291 12.8006 12.2119C12.5728 12.3738 12.3738 12.5728 12.2119 12.8006C12.0291 13.0576 11.9116 13.3631 11.6766 13.9741L10 18.3333L8.32337 13.9741C8.08836 13.3631 7.97085 13.0576 7.78813 12.8006C7.62617 12.5728 7.42718 12.3738 7.19942 12.2119C6.94244 12.0291 6.63693 11.9116 6.0259 11.6766L1.66666 10L6.0259 8.32337C6.63693 8.08836 6.94244 7.97086 7.19942 7.78813C7.42718 7.62618 7.62617 7.42718 7.78812 7.19942C7.97085 6.94244 8.08836 6.63693 8.32337 6.02591L10 1.66667Z" stroke="#EBEBEB" stroke-linecap="round" stroke-linejoin="round"/>
</svg>
